<svg width="175" height="61" viewBox="0 0 175 61" fill="none" xmlns="http://www.w3.org/2000/svg">
<g style="mix-blend-mode:multiply" opacity="0.3">
<path d="M174.86 -10.3469C171.155 -13.1115 166.61 -13.4078 160.388 -10.4456C153.746 -7.28601 144.866 -0.275627 131.652 13.1527C111.516 33.6902 82.7108 50.2781 40.3416 57.1898C27.1974 59.2633 13.7036 60.3494 0.139849 60.4481V60.9418C13.7036 60.7444 27.1275 59.757 40.2717 57.5847C45.5853 56.6961 50.6193 55.7087 55.4435 54.5239C89.5625 46.5261 113.963 31.4192 131.722 13.2515C155.843 -11.3343 167.449 -15.7775 174.79 -10.2481L174.86 -10.3469Z" fill="#217EFD"/>
<path d="M174.86 -9.95178C171.294 -12.4202 166.82 -12.4202 160.667 -9.35935C154.305 -6.101 145.705 0.711908 131.582 14.4365C112.495 33.0979 85.2975 48.1061 45.3055 54.2278C30.6232 56.4988 15.4514 57.3874 0.0698294 57.3874V57.8811C15.3815 57.8811 30.5532 56.9925 45.2356 54.7215C50.2696 53.9316 55.0938 52.9442 59.6383 51.9568C91.8697 44.6502 114.872 31.1232 131.722 14.6339C151.228 -4.42246 165.631 -15.9748 174.86 -9.7543V-9.95178Z" fill="#217EFD"/>
<path d="M174.86 -9.06329C168.078 -11.9267 158.779 -3.92892 146.194 7.03098C141.999 10.6843 137.105 14.8313 131.862 19.1757C105.853 40.1081 69.3567 46.7236 32.3011 47.6122C21.604 47.8097 10.9767 47.5135 0.0698294 46.921V47.5135C10.9068 48.1059 21.4642 48.4021 32.0215 48.1059C48.7314 47.7109 62.9943 46.1311 75.3695 43.7614C82.0115 42.4778 88.1641 40.898 93.8273 39.1208C109.489 34.1839 122.003 27.371 131.932 19.3732C137.175 15.1275 142.069 10.8818 146.264 7.22845C158.779 -3.63271 168.008 -11.6305 174.79 -8.86581L174.86 -9.06329Z" fill="#217EFD"/>
<path d="M174.86 -9.06329C173.881 -9.45824 172.902 -9.55703 171.784 -9.55703C165.771 -9.26082 158.08 -2.54664 148.362 5.94481C143.608 10.0918 138.014 14.93 131.862 19.6694C106.342 39.4169 70.4054 45.5387 33.7694 46.1311C22.6527 46.3286 11.3962 45.8349 0.0698294 45.2425V45.9336C11.3263 46.6248 22.443 46.921 33.5596 46.7235C50.759 46.4273 65.3715 44.8475 77.8165 42.4778C83.8293 41.3917 89.3527 40.0094 94.4566 38.4296C109.908 33.8876 122.213 27.4697 132.001 19.8668C138.154 15.1274 143.677 10.1905 148.432 6.14229C159.828 -3.83023 168.428 -11.3343 174.86 -8.86587V-9.06329Z" fill="#217EFD"/>
<path d="M174.86 -8.86587C174.021 -9.16208 173.112 -9.3597 172.064 -9.26096C166.33 -8.96475 159.059 -2.54679 150.11 5.35224C144.656 10.0917 138.783 15.3248 131.932 20.4591C106.972 39.0218 71.5242 44.6499 35.3076 45.0448C23.7016 45.1436 11.9557 44.7486 0.139849 43.9587V44.6499C11.8858 45.4398 23.5617 45.8347 35.0979 45.6373C52.7867 45.3411 67.7487 43.9587 80.4035 41.589C85.6472 40.6016 90.6113 39.5155 95.1558 38.2319C110.398 33.9862 122.493 27.9632 132.141 20.7553C138.993 15.621 144.866 10.3879 150.32 5.54971C159.269 -2.34931 166.47 -8.76727 172.203 -9.06349C173.182 -9.06349 174.091 -9.06349 174.93 -8.66853L174.86 -8.86587Z" fill="#217EFD"/>
<path d="M174.86 -8.86587C174.091 -9.16208 173.252 -9.2609 172.343 -9.2609C166.82 -8.96469 159.968 -2.74421 151.578 4.75987C145.775 9.89423 139.413 15.7198 132.002 20.9529C107.531 38.4295 72.5729 43.4651 36.7759 43.6626C24.7503 43.6626 12.4451 43.1689 0.139849 42.379V43.0701C12.3752 43.86 24.5406 44.3537 36.5661 44.255C54.8142 44.1563 70.1259 42.6752 82.9904 40.4042C87.535 39.6143 91.7998 38.6269 95.7851 37.6396C110.817 33.69 122.773 28.062 132.141 21.3478C139.553 16.016 145.915 10.2892 151.718 5.05608C160.108 -2.44799 166.96 -8.66848 172.413 -8.96469C173.322 -8.96469 174.161 -8.96475 174.93 -8.66853L174.86 -8.86587Z" fill="#217EFD"/>
<path d="M174.86 -8.86587C174.161 -9.06334 173.392 -9.16219 172.553 -9.16219C167.239 -8.76724 160.667 -2.84297 152.767 4.46362C146.684 9.99294 139.902 16.2134 132.001 21.644C108.09 37.9357 73.5516 42.4777 38.1741 42.4777C25.6591 42.4777 12.8645 41.8853 0.0698294 40.8979V41.589C12.7946 42.4777 25.5193 43.0701 37.8944 43.0701C53.9751 43.0701 70.2656 41.984 85.4374 39.3181C103.196 36.1585 119.137 30.7279 132.141 21.8415C140.042 16.4109 146.824 10.1904 152.906 4.6611C160.807 -2.6455 167.309 -8.56977 172.623 -8.96472C173.462 -8.96472 174.161 -8.96472 174.93 -8.76724L174.86 -8.86587Z" fill="#217EFD"/>
<path d="M174.86 -8.86587C174.161 -9.06334 173.462 -9.16201 172.693 -9.06327C167.519 -8.66832 161.296 -2.74405 153.745 4.26633C147.453 10.1906 140.322 16.9048 132.001 22.2366C108.58 37.4422 74.4605 41.3917 39.5724 41.293C26.6379 41.293 13.3539 40.5031 0.0698294 39.5157V40.3056C13.284 41.293 26.4282 41.8854 39.2928 41.9842C55.9328 41.9842 72.7127 41.0955 88.1641 38.3309C104.874 35.4675 119.836 30.5306 132.071 22.6316C140.391 17.201 147.523 10.5856 153.815 4.56254C161.296 -2.54658 167.589 -8.37211 172.693 -8.8658C173.462 -8.8658 174.161 -8.8658 174.79 -8.66832L174.86 -8.86587Z" fill="#217EFD"/>
<path d="M174.86 -8.86587C174.231 -8.9646 173.532 -9.06345 172.832 -8.96471C167.799 -8.47102 161.786 -2.64549 154.584 4.26616C148.082 10.5854 140.671 17.6945 132.001 22.9276C109.069 36.9484 75.4394 40.5029 40.9008 40.108C27.4769 39.9105 13.7734 39.2194 0.0698294 38.0345V38.8244C13.7035 39.9105 27.407 40.6017 40.6911 40.7004C57.8904 40.7992 75.2995 40.0093 91.1006 37.2446C106.692 34.5787 120.605 30.2342 132.141 23.1251C140.811 17.7932 148.152 10.6841 154.654 4.3649C161.856 -2.54675 167.868 -8.37228 172.832 -8.96471C173.532 -8.96471 174.161 -8.96455 174.79 -8.86581L174.86 -8.86587Z" fill="#217EFD"/>
<path d="M174.86 -8.86587C174.231 -8.9646 173.602 -8.96443 172.972 -8.86569C168.078 -8.27326 162.275 -2.44773 155.354 4.36518C148.642 10.9806 141.021 18.5834 132.141 23.7178C109.698 36.5537 76.4882 39.6146 42.3692 39.1209C28.5258 38.9234 14.3328 38.0348 0.139849 36.8499V37.6398C14.2629 38.8247 28.386 39.6146 42.0895 39.7133C59.988 39.9108 78.0264 39.2196 94.177 36.455C108.58 34.0853 121.514 30.1357 132.211 24.014C141.161 18.8796 148.781 11.2768 155.423 4.66139C162.275 -2.15152 168.148 -7.97705 172.972 -8.56948C173.602 -8.56948 174.231 -8.56948 174.86 -8.56948V-8.76695L174.86 -8.86587Z" fill="#217EFD"/>
<path d="M174.86 -8.86587C174.301 -8.86587 173.672 -8.86589 173.042 -8.86589C168.288 -8.17472 162.625 -2.34919 155.913 4.36498C149.061 11.3754 141.23 19.3731 132.072 24.31C110.118 36.0598 77.3971 38.627 43.5577 37.9359C29.2948 37.6396 14.6824 36.6523 0 35.3687V36.1586C14.5425 37.3434 29.0851 38.3308 43.2781 38.5283C61.9457 38.9232 80.6832 38.2321 97.2533 35.4674C110.467 33.2952 122.213 29.9381 132.072 24.6062C141.23 19.6693 149.061 11.6716 155.913 4.66119C162.555 -2.15172 168.148 -7.87851 172.972 -8.66841C173.602 -8.66841 174.161 -8.66832 174.79 -8.66832V-8.86581L174.86 -8.86587Z" fill="#217EFD"/>
<path d="M174.86 -8.86587C174.301 -8.86587 173.742 -8.86589 173.112 -8.86589C168.428 -8.07599 162.905 -2.25045 156.472 4.56245C149.481 11.8691 141.44 20.3605 132.211 25.0012C110.747 35.6649 78.4459 37.7384 45.026 36.8497C30.3436 36.4548 15.2417 35.3687 0.139849 33.9863V34.7762C15.1718 36.0598 30.1339 37.0472 44.7463 37.4422C64.2529 37.9358 83.8993 37.3434 100.819 34.5788C112.705 32.7027 123.332 29.7406 132.281 25.2974C141.58 20.6567 149.62 12.1653 156.542 4.75993C162.974 -2.05298 168.428 -7.87851 173.112 -8.66841C173.672 -8.76715 174.301 -8.76715 174.86 -8.66841L174.86 -8.86587Z" fill="#217EFD"/>
<path d="M174.86 -8.96439C174.301 -8.96439 173.741 -8.96439 173.182 -8.96439C168.568 -8.07575 163.184 -2.25022 156.962 4.56269C149.9 12.2642 141.72 21.2494 132.281 25.4951C111.306 34.9739 79.3547 36.6525 46.3543 35.5664C31.2524 35.0727 15.7311 33.9866 0.209678 32.5055V33.2954C15.6611 34.6777 31.1126 35.6651 46.1446 36.1588C66.6999 36.7512 87.1853 36.3563 104.524 33.5916C115.012 31.9131 124.381 29.4446 132.421 25.7913C141.86 21.4469 150.04 12.5605 157.101 4.76017C163.324 -2.05274 168.707 -7.87828 173.322 -8.86565C173.881 -8.96439 174.441 -8.96439 175 -8.86565V-9.06313L174.86 -8.96439Z" fill="#217EFD"/>
<path d="M174.86 -8.96439C174.301 -8.96439 173.741 -8.96439 173.182 -8.86565C168.638 -7.87828 163.394 -1.95401 157.241 4.95764C150.04 13.0541 141.72 22.4342 132.211 26.285C111.726 34.6777 80.1938 35.8626 47.473 34.579C32.0216 33.9866 16.0108 32.8017 0 31.3206V32.1105C15.871 33.4929 31.8118 34.6777 47.1934 35.1714C68.8673 35.9613 90.4015 35.5664 108.16 32.8017C117.109 31.4194 125.22 29.3459 132.211 26.4825C141.72 22.533 150.11 13.1529 157.241 5.05638C163.324 -1.85527 168.568 -7.6808 173.112 -8.76692C173.672 -8.86565 174.231 -8.96455 174.79 -8.86581L174.79 -9.06313L174.86 -8.96439Z" fill="#217EFD"/>
<path d="M174.86 -9.06329C174.301 -9.06329 173.741 -9.06313 173.182 -8.86565C168.708 -7.77954 163.534 -1.75653 157.591 5.15512C150.32 13.5478 141.86 23.4216 132.281 26.8774C104.874 36.85 53.5556 34.8752 0.0698294 29.9383V30.7282C42.3691 34.4803 84.3187 36.3563 112.425 32.0118C119.836 30.827 126.478 29.2471 132.281 27.1737C141.86 23.6191 150.389 13.7453 157.591 5.35259C163.534 -1.55906 168.638 -7.5823 173.112 -8.66841C173.672 -8.76715 174.231 -8.86581 174.79 -8.86581L174.79 -9.06313L174.86 -9.06329Z" fill="#217EFD"/>
<path d="M174.86 -9.06329C170.036 -9.06329 164.303 -2.34926 157.871 5.45103C150.529 14.2387 141.93 24.6062 132.351 27.5683C105.364 36.0598 53.6956 33.6901 0.139849 28.6544V29.4443C44.7463 33.3938 88.9333 35.6648 116.97 31.3203C122.633 30.4317 127.807 29.2468 132.421 27.7658C142.07 24.7049 150.669 14.3374 158.01 5.45103C163.813 -1.55935 168.847 -7.58206 173.322 -8.86565C173.881 -9.06313 174.441 -9.06313 175 -9.06313L175 -9.2609L174.86 -9.06329Z" fill="#217EFD"/>
<path d="M174.86 -9.16219C170.036 -9.16219 164.443 -2.15181 158.08 5.74722C150.669 14.9298 141.999 25.6923 132.351 28.2594C105.783 35.2698 53.7654 32.5052 0.0698294 27.4695V28.2594C47.3331 32.5052 93.8972 35.0724 121.654 30.7279C125.499 30.1355 129.065 29.4443 132.351 28.5557C141.999 25.9885 150.669 15.1273 158.08 5.9447C164.443 -1.95433 170.036 -8.86598 174.79 -8.96472V-9.16219H174.86Z" fill="#217EFD"/>
<path d="M174.86 -9.35941C170.106 -9.26067 164.512 -2.15154 158.22 5.94496C150.739 15.5225 141.93 26.7786 132.351 28.7534C106.202 34.2827 53.7654 31.1231 0.0698294 26.0875V26.9761C50.4094 31.5181 99.91 34.3815 126.898 30.1357C128.785 29.8395 130.673 29.4446 132.421 29.0496C142.069 26.9761 150.879 15.6213 158.36 6.0437C164.582 -1.95407 170.176 -9.06319 174.93 -9.26067V-9.45814L174.86 -9.35941Z" fill="#217EFD"/>
<path d="M174.86 -9.45814C170.106 -9.26067 164.582 -1.95407 158.36 6.33991C150.809 16.2137 141.999 27.9635 132.421 29.4446C106.692 33.4928 53.8353 29.9383 0.0698294 24.9026V25.6925C53.9751 30.5307 106.692 33.8878 132.421 29.7408C142.069 28.161 150.879 16.4112 158.43 6.43865C164.582 -1.75659 170.106 -9.06319 174.79 -9.26067V-9.45814H174.86Z" fill="#217EFD"/>
<path d="M174.86 -9.55703C170.106 -9.26082 164.652 -1.75674 158.5 6.63598C151.159 16.7072 142.489 28.457 133.33 30.0368C133.05 30.0368 132.771 30.0368 132.491 30.1356C107.181 32.7028 53.9053 28.7533 0.139849 23.7176V24.6063C54.0452 29.4444 107.251 33.0977 132.491 30.5305C132.771 30.5305 133.05 30.5305 133.33 30.4318C142.629 28.852 151.298 17.0034 158.64 6.93219C164.792 -1.46053 170.246 -8.86572 174.93 -9.26067V-9.45814L174.86 -9.55703Z" fill="#217EFD"/>
<path d="M174.86 -9.65556C174.301 -9.65556 173.672 -9.45809 173.042 -9.16187C168.708 -7.28585 164.023 -0.57168 158.57 7.03113C151.368 17.2011 142.909 29.0497 134.029 30.6295C133.54 30.6295 133.05 30.7282 132.561 30.827C107.671 31.8143 53.9752 27.5686 0.139849 22.6317V23.5204C54.1151 28.2598 107.671 32.308 132.491 31.2219C132.98 31.2219 133.47 31.2219 134.029 31.0244C142.978 29.4446 151.508 17.4973 158.71 7.32734C164.792 -1.26285 170.246 -8.86566 174.93 -9.35935V-9.55682L174.86 -9.65556Z" fill="#217EFD"/>
<path d="M174.86 -9.7543C174.231 -9.7543 173.602 -9.55715 172.972 -9.26094C168.707 -7.18744 163.953 -0.37453 158.64 7.32702C151.019 18.3857 141.93 31.6165 132.561 31.419C108.09 30.9254 53.9751 26.2847 0.0698294 21.3478V22.2364C54.045 26.8771 108.09 31.2216 132.491 31.7153C133.26 31.7153 133.959 31.7153 134.728 31.5178C143.328 29.938 151.298 18.2869 158.709 7.5245C164.023 -0.275793 168.707 -7.0887 172.972 -9.06346C173.602 -9.35967 174.231 -9.55703 174.86 -9.55703L174.86 -9.7543Z" fill="#217EFD"/>
<path d="M174.86 -9.95178C174.231 -9.95178 173.602 -9.75436 172.903 -9.35941C168.638 -7.18718 163.744 0.119421 158.64 7.72223C150.599 19.7682 141.86 32.8016 132.631 32.0117C108.44 29.8395 53.9053 25.0014 0.139849 20.1632V21.0518C53.9752 25.5938 108.44 30.2345 132.561 32.3079C133.47 32.3079 134.379 32.308 135.358 32.1105C143.678 30.4319 151.508 18.6821 158.779 7.82097C163.813 0.218159 168.707 -7.0887 172.972 -9.26094C173.671 -9.55715 174.301 -9.75436 174.93 -9.8531V-10.0506L174.86 -9.95178Z" fill="#217EFD"/>
<path d="M174.86 -10.0506C174.231 -10.0506 173.532 -9.75436 172.832 -9.35941C168.568 -7.08844 163.673 0.415634 158.64 8.21592C150.529 20.6569 141.79 34.184 132.631 32.8016C109.139 29.0496 53.9751 23.9152 0.0698294 19.2746V20.1632C54.045 24.7051 108.999 29.5433 132.491 33.1966C133.61 33.3941 134.658 33.2953 135.707 33.0979C143.817 31.4193 151.508 19.5708 158.64 8.51214C163.673 0.711848 168.498 -6.69349 172.763 -9.0632C173.462 -9.45815 174.091 -9.65562 174.79 -9.75436V-9.95184L174.86 -10.0506Z" fill="#217EFD"/>
<path d="M174.86 -10.2483C174.161 -10.2483 173.462 -9.95208 172.763 -9.55713C168.498 -7.08868 163.673 0.61311 158.64 8.51214C150.529 21.3481 141.72 35.3686 132.701 33.2951C109.628 27.9632 53.9752 22.5327 0.139849 17.9907V18.8794C54.0452 23.2238 109.559 28.3582 132.631 33.5913C133.889 33.8875 135.078 33.8875 136.336 33.5913C144.167 31.9128 151.788 19.8667 158.779 8.61064C163.743 0.612872 168.568 -6.98994 172.833 -9.45839C173.532 -9.85334 174.231 -10.0508 174.93 -10.2483V-10.4458L174.86 -10.2483Z" fill="#217EFD"/>
<path d="M174.86 -10.3469C174.161 -10.2481 173.392 -9.95208 172.623 -9.55713C168.358 -6.8912 163.534 0.909084 158.57 9.00559C150.389 22.3352 141.58 36.7509 132.701 33.9863C110.118 26.9759 53.9751 21.4466 0.0698294 16.9046V17.892C53.9751 22.039 109.978 27.3708 132.561 34.2825C133.889 34.6774 135.288 34.7762 136.616 34.3812C144.307 32.7027 151.718 20.4592 158.64 9.10432C163.604 1.00782 168.358 -6.8912 172.623 -9.45839C173.392 -9.95208 174.091 -10.1494 174.79 -10.2481L174.79 -10.4458L174.86 -10.3469Z" fill="#217EFD"/>
<path d="M174.86 -10.5443C174.161 -10.4456 173.392 -10.1493 172.553 -9.65566C168.288 -6.891 163.464 1.2055 158.5 9.49948C150.32 23.224 141.44 38.1335 132.701 34.6776C110.607 25.9887 53.9052 20.2619 0.0698294 16.0162V17.0036C53.9052 21.0518 110.537 26.5811 132.561 35.0726C134.029 35.665 135.497 35.665 136.966 35.3688C144.447 33.5915 151.788 21.2493 158.64 9.69696C163.604 1.40298 168.358 -6.69373 172.623 -9.45839C173.392 -9.95208 174.161 -10.2481 174.86 -10.3469L174.86 -10.5443Z" fill="#217EFD"/>
<path d="M174.86 -10.8408C174.091 -10.6433 173.322 -10.3471 172.483 -9.75466C168.218 -6.79253 163.464 1.40271 158.5 9.9929C150.32 24.1124 141.37 39.4168 132.84 35.3685C111.166 25.0011 53.9052 19.0768 0.0698294 14.9298V15.9172C53.9052 19.8667 111.027 25.4947 132.631 35.6647C134.169 36.3559 135.707 36.5534 137.315 36.1584C144.586 34.3811 151.858 21.8414 158.57 10.1904C163.464 1.69893 168.218 -6.59505 172.483 -9.45845C173.322 -10.0509 174.091 -10.3471 174.86 -10.4458V-10.8408Z" fill="#217EFD"/>
<path d="M174.86 -11.038C174.091 -10.8405 173.252 -10.4456 172.343 -9.85317C168.078 -6.79229 163.324 1.69916 158.36 10.3881C150.18 24.9025 141.23 40.7006 132.84 35.9612C111.726 24.0139 53.9052 17.9909 0.0698294 13.9427V14.9298C53.8353 18.6818 111.516 24.4089 132.631 36.3561C134.239 37.2448 135.917 37.4423 137.525 37.0473C144.656 35.27 151.788 22.5328 158.43 10.6843C163.324 1.99537 168.078 -6.49608 172.343 -9.55695C173.182 -10.1494 174.021 -10.5443 174.79 -10.7418V-10.9393L174.86 -11.038Z" fill="#217EFD"/>
<path d="M174.86 -11.2356C174.021 -11.0381 173.182 -10.6432 172.273 -9.95202C167.938 -6.69368 163.184 1.99525 158.29 10.8817C150.11 25.7911 141.16 42.0828 132.91 36.5535C112.215 22.9277 53.7654 16.8059 0.0698294 12.9551V13.9427C53.7654 17.4972 112.075 23.4214 132.631 36.9484C134.309 38.0346 136.057 38.3308 137.735 37.8371C144.656 35.9611 151.718 23.1251 158.36 11.0791C163.254 2.19273 168.008 -6.4962 172.273 -9.75455C173.182 -10.4457 174.021 -10.8405 174.86 -11.038V-11.2356Z" fill="#217EFD"/>
<path d="M174.86 -11.4329C169.826 -10.248 164.163 0.316948 158.15 11.4743C149.9 26.7787 140.951 43.4654 132.91 37.3436C112.775 21.8418 53.6256 15.6213 0.0698294 12.0667V13.0541C53.5556 16.4112 112.565 22.3355 132.701 37.6398C134.449 38.9234 136.196 39.2197 138.014 38.726C144.796 36.8499 151.788 23.8165 158.29 11.5731C164.233 0.51442 169.826 -10.0508 174.86 -11.2356V-11.4329Z" fill="#217EFD"/>
<path d="M174.86 -11.6305C169.756 -10.4456 164.093 0.514301 158.08 11.9679C151.648 24.2114 145.076 36.8498 138.713 39.1208C136.686 39.9107 134.798 39.5157 132.98 37.9359C113.334 20.7556 53.5556 14.5351 0.0698294 11.0793V12.1654C53.4158 15.325 113.054 21.2492 132.701 38.3309C134.449 39.812 136.266 40.3056 138.224 39.7132C138.364 39.7132 138.504 39.7132 138.644 39.6145C145.076 37.2448 151.718 24.5076 158.15 12.2641C164.093 0.810516 169.756 -10.0506 174.79 -11.3342V-11.6305H174.86Z" fill="#217EFD"/>
<path d="M174.86 -11.9266C169.686 -10.643 163.953 0.613123 157.94 12.4617C151.578 25.0014 144.936 37.936 138.713 40.1083C138.644 40.1083 138.504 40.1083 138.434 40.1083C136.476 40.7007 134.728 40.1083 133.05 38.5285C113.823 19.6695 53.4158 13.449 0.0698294 10.1907V11.1781C53.276 14.1402 113.614 20.1632 132.701 38.9234C134.449 40.7007 136.336 41.1944 138.364 40.6019C138.434 40.6019 138.574 40.6019 138.644 40.6019C145.006 38.331 151.648 25.3963 158.01 12.7579C164.023 0.909339 169.686 -10.248 174.79 -11.5316V-11.8278L174.86 -11.9266Z" fill="#217EFD"/>
<path d="M174.86 -12.1243C169.686 -10.8407 163.883 0.810331 157.801 13.0538C151.438 25.8897 144.866 39.1206 138.714 41.0954H138.574C136.616 41.7865 134.798 41.0954 133.05 39.2193C121.304 26.186 96.5541 19.6693 69.7763 15.7197C47.8226 12.4614 22.2333 10.4866 0.139849 9.20305V10.2892C53.2062 13.0538 114.243 18.9781 132.841 39.5156C134.658 41.4903 136.546 42.0827 138.644 41.4903H138.783C145.076 39.3181 151.648 26.0872 158.01 13.1526C164.093 0.909068 169.826 -10.6433 174.93 -11.9268V-12.2231L174.86 -12.1243Z" fill="#217EFD"/>
<path d="M174.86 -12.4203C169.616 -11.1367 163.743 0.909336 157.591 13.5478C151.229 26.6799 144.726 40.1083 138.644 42.083C136.616 42.7742 134.798 42.083 133.05 39.9108C121.724 25.7913 97.2533 19.0771 70.6852 14.9301C48.5218 11.4743 22.3731 9.59827 0 8.41341V9.49953C22.3032 10.5856 48.312 12.3629 70.4754 15.6213C96.9736 19.5708 121.374 26.1862 132.701 40.207C134.519 42.478 136.476 43.1691 138.574 42.478C144.726 40.5032 151.298 26.8774 157.661 13.7453C163.743 1.10681 169.547 -10.8405 174.79 -12.2228V-12.519L174.86 -12.4203Z" fill="#217EFD"/>
<path d="M174.86 -12.6181C173.811 -12.3219 172.693 -11.6307 171.504 -10.4458C167.099 -6.10138 162.345 3.87114 157.451 14.2386C151.159 27.4695 144.656 41.194 138.783 43.0701H138.713C136.686 43.7612 134.868 42.8726 133.12 40.6016C122.143 25.4947 98.0223 18.3856 71.6639 14.2386C49.2208 10.5853 22.5828 8.7093 0.0698294 7.62318V8.7093C22.5129 9.69667 49.081 11.474 71.4542 14.9298C97.6727 18.978 121.864 25.9884 132.771 40.9966C134.588 43.465 136.476 44.2549 138.644 43.5637H138.783C144.796 41.4902 151.298 27.7657 157.591 14.4361C163.743 1.4027 169.616 -10.9395 174.86 -12.3219V-12.6181Z" fill="#217EFD"/>
<path d="M174.86 -12.914C173.742 -12.6178 172.623 -11.9266 171.364 -10.6431C166.89 -6.10111 162.135 4.16762 157.241 14.7326C151.019 28.1609 144.586 41.9842 138.853 43.959C138.853 43.959 138.714 43.959 138.644 43.959C136.616 44.5514 134.798 43.6627 133.12 41.0956C122.563 25.0013 98.6516 17.596 72.5729 13.2515C49.8502 9.49946 22.6528 7.62345 0 6.63607V7.72218C22.513 8.61082 49.5705 10.2894 72.2932 13.9427C98.302 18.0897 122.143 25.3963 132.701 41.3918C134.449 44.0577 136.406 45.0451 138.504 44.3539C138.504 44.3539 138.644 44.3539 138.714 44.3539C144.586 42.2804 151.019 28.4571 157.241 14.93C163.464 1.5017 169.337 -11.3342 174.72 -12.7165V-12.914H174.86Z" fill="#217EFD"/>
<path d="M174.86 -13.2105C173.742 -12.9143 172.553 -12.1244 171.225 -10.742C166.75 -6.00262 161.996 4.46359 157.032 15.3248C150.879 28.9506 144.517 42.9713 138.923 44.9461C138.853 44.9461 138.783 44.9461 138.644 44.9461C136.616 45.5385 134.798 44.5512 133.12 41.6878C122.912 24.5074 99.3508 16.8058 73.4818 12.3626C50.4095 8.41311 22.7227 6.63582 0 5.74718V6.8333C22.6528 7.52447 50.2697 9.20301 73.2721 13.0538C99.0012 17.2995 122.633 24.9023 132.771 41.984C134.519 44.9461 136.406 46.0322 138.574 45.3411C138.644 45.3411 138.714 45.3411 138.853 45.3411C144.586 43.2676 150.949 29.2468 157.171 15.5222C162.065 4.66107 166.82 -5.80514 171.225 -10.5446C172.483 -11.9269 173.672 -12.7168 174.79 -13.013V-13.3092L174.86 -13.2105Z" fill="#217EFD"/>
<path d="M174.86 -13.4079C173.672 -13.1117 172.413 -12.2231 171.085 -10.742C166.61 -5.80511 161.786 4.95731 156.892 16.1147C150.739 29.938 144.447 44.0575 138.993 46.131C138.923 46.131 138.783 46.131 138.714 46.131C136.686 46.7234 134.868 45.5386 133.26 42.4777C123.472 24.3099 100.12 16.3122 74.5306 11.7702C51.2485 7.62323 22.9325 5.94469 0.139849 5.15479V6.2409C22.7927 6.93207 51.0388 8.51187 74.3208 12.4614C99.8402 16.8058 123.122 24.7049 132.98 42.7739C134.728 45.9335 136.616 47.1184 138.783 46.5259C138.853 46.5259 138.993 46.5259 139.063 46.5259C144.726 44.4524 151.019 30.2342 157.101 16.3122C161.996 5.25352 166.75 -5.5089 171.225 -10.4458C172.553 -11.9269 173.742 -12.7168 174.93 -13.1117V-13.4079H174.86Z" fill="#217EFD"/>
<path d="M174.86 -13.7037C173.671 -13.4075 172.343 -12.5188 170.945 -10.8403C166.4 -5.7059 161.646 5.35273 156.682 16.7076C150.599 30.7284 144.377 45.0453 139.063 47.0201C138.923 47.0201 138.853 47.0201 138.713 47.1188C136.686 47.7113 134.938 46.4277 133.26 43.0706C123.821 23.8167 100.749 15.5227 75.3695 10.9808C51.8077 6.73506 22.9324 5.05652 0.0698294 4.36536V5.55021C22.8625 6.0439 51.6679 7.6237 75.1597 11.672C100.399 16.1152 123.472 24.3104 132.84 43.3668C134.518 46.8226 136.406 48.1062 138.574 47.5138C138.713 47.5138 138.783 47.5138 138.923 47.4151C144.447 45.3416 150.669 30.9258 156.752 16.8063C161.646 5.45147 166.4 -5.60717 170.945 -10.7415C172.343 -12.3213 173.602 -13.21 174.79 -13.5062V-13.8024L174.86 -13.7037Z" fill="#217EFD"/>
<path d="M174.86 -14C173.602 -13.7038 172.273 -12.7164 170.805 -10.9391C166.26 -5.60728 161.436 5.74757 156.472 17.3986C150.459 31.6169 144.307 46.0326 139.063 48.1061C138.923 48.1061 138.853 48.1061 138.714 48.2048C136.686 48.7973 134.938 47.4149 133.33 43.8604C124.311 23.6191 101.448 15.0289 76.3484 10.2895C52.507 5.8463 23.0723 4.2665 0.139849 3.67407V4.85892C22.9325 5.25388 52.3672 6.63621 76.1386 10.9807C101.169 15.5226 123.891 24.0141 132.98 44.0578C134.658 47.7111 136.546 49.1922 138.714 48.5998C138.853 48.5998 138.993 48.5998 139.133 48.501C144.517 46.4275 150.39 32.4068 156.682 17.5961C161.576 5.94504 166.4 -5.31107 170.945 -10.6429C172.343 -12.3215 173.672 -13.3088 174.93 -13.605V-13.9013L174.86 -14Z" fill="#217EFD"/>
<path d="M174.86 17.991C173.462 13.4491 171.714 9.89455 169.546 7.22862C163.394 -0.0779743 152.347 -0.966614 122.703 9.10464C93.5477 18.9784 53.4158 21.7431 0.0698294 18.5835V18.9784C17.1993 19.9658 32.0914 20.4595 45.3055 20.262C79.914 19.7683 104.664 15.4239 122.773 9.30212C152.347 -0.769138 163.394 0.0207634 169.546 7.32736C171.784 9.89455 173.462 13.4491 174.93 18.0898L174.86 17.991Z" fill="#217EFD"/>
<path d="M174.86 17.991C173.462 13.6466 171.784 10.2892 169.756 7.82074C166.68 4.26618 162.485 2.29142 156.262 2.29142C149.76 2.29142 140.042 4.36492 122.423 10.1904C93.4079 19.768 53.346 22.3352 0.139849 19.0769V19.5705C17.549 20.5579 32.5809 21.1503 45.9349 20.8541C49.2909 20.8541 52.507 20.8541 55.6532 20.6567C84.7383 19.6693 106.272 15.8185 122.423 10.3879C146.824 2.19268 162.066 -1.06566 169.686 7.82074C171.784 10.2892 173.462 13.6463 174.86 18.0895V17.892L174.86 17.991Z" fill="#217EFD"/>
<path d="M174.86 18.0895C173.532 13.9425 171.924 10.6843 169.896 8.41335C166.82 4.76005 162.695 2.98277 156.332 3.18025C149.9 3.37772 140.741 5.35248 122.004 11.3755C93.1282 20.7556 53.1361 23.0266 0.0698294 19.7682V20.1632C17.7586 21.2493 33.0003 21.743 46.4941 21.6442C80.2636 21.2493 104.455 17.2998 122.143 11.573C150.669 2.2916 163.184 0.514326 169.896 8.51209C171.924 10.8818 173.532 14.1401 174.86 18.2871L174.86 18.0895Z" fill="#217EFD"/>
<path d="M174.86 18.0895C174.511 17.1021 174.161 16.1148 173.811 15.2262C171.924 10.6842 169.547 7.5246 166.4 5.74732C163.184 3.97004 158.919 3.37761 152.627 4.26625C145.146 5.35237 134.658 8.41324 121.794 12.4615C93.0583 21.5454 53.1362 23.6189 0.139849 20.2618V20.7555C18.0384 21.8416 33.4898 22.434 47.1235 22.2365C80.4734 21.9403 104.385 18.1883 121.864 12.659C155.773 1.89654 168.708 -0.769375 174.93 18.287L174.93 18.0898L174.86 18.0895Z" fill="#217EFD"/>
<path d="M174.86 17.991C172.763 11.7706 169.966 7.8208 166.051 5.94478C158.36 2.29148 144.377 6.53721 121.444 13.5476C92.8486 22.2365 52.9964 24.2113 0.139849 20.8542V21.3479C18.318 22.434 33.9792 23.0264 47.6828 22.9277C80.6133 22.7302 104.245 19.1756 121.514 13.8438C144.447 6.73468 158.36 2.48896 166.051 6.14226C169.966 8.01828 172.763 11.9678 174.86 18.1883L174.86 17.991Z" fill="#217EFD"/>
<path d="M174.86 17.892C172.833 11.9677 170.176 8.31435 166.47 6.53707C159.548 3.27872 148.572 6.53707 127.807 12.6588C125.709 13.2512 123.472 13.9424 121.095 14.6336C92.6387 23.0263 52.8565 24.8036 0.0698294 21.249V21.7427C18.5277 22.9275 34.3287 23.6187 48.1721 23.52C80.753 23.3225 104.035 19.9654 121.164 14.9298C123.542 14.2386 125.779 13.5475 127.876 12.8563C148.572 6.6358 159.618 3.37746 166.47 6.63581C170.176 8.41309 172.833 12.1652 174.86 18.0895V17.892Z" fill="#217EFD"/>
<path d="M174.86 17.7934C174.51 16.806 174.161 15.9174 173.741 15.0287C171.993 11.1779 169.826 8.51202 167.029 7.12969C160.807 3.97009 151.368 6.83348 134.518 11.7704C130.463 12.9552 125.919 14.3376 120.745 15.8186C92.429 23.9151 52.7166 25.3962 0.0698294 21.8416V22.3353C18.7374 23.5202 34.8181 24.2113 48.7314 24.2113C80.8928 24.2113 103.895 20.953 120.815 16.1148C126.059 14.6338 130.603 13.2514 134.588 12.0666C151.438 7.03096 160.807 4.16756 167.029 7.32717C170.385 9.00571 172.902 12.5603 174.79 17.9909V17.7934H174.86Z" fill="#217EFD"/>
<path d="M174.86 17.596C169.337 2.39034 159.758 5.25373 139.343 11.4742C134.099 13.054 127.946 14.93 120.465 17.0035C92.2893 24.7051 52.6468 25.9887 0.139849 22.4341V22.9278C19.0871 24.2114 35.3076 24.9026 49.3608 24.9026C81.1027 24.9026 103.825 21.8417 120.535 17.2997C128.016 15.2263 134.169 13.3502 139.413 11.7704C159.828 5.54995 169.407 2.58781 174.93 17.8922V17.6947L174.86 17.596Z" fill="#217EFD"/>
<path d="M174.86 17.497C174.58 16.6083 174.231 15.8184 173.881 15.1273C172.273 11.6715 170.385 9.30175 167.868 8.01816C162.555 5.2535 154.724 7.72195 142.769 11.5727C136.686 13.4487 129.415 15.7197 120.116 18.1882C92.0794 25.5935 52.5069 26.6796 0.0698294 22.9276V23.4213C19.2968 24.7048 35.727 25.4948 49.8501 25.4948C81.1725 25.4948 103.685 22.7301 120.116 18.3856C129.415 15.9172 136.756 13.5475 142.769 11.6715C154.724 7.82069 162.485 5.35224 167.799 8.1169C170.735 9.59796 172.972 12.8563 174.79 17.6945V17.497H174.86Z" fill="#217EFD"/>
<path d="M174.86 17.2996C174.581 16.5097 174.231 15.7198 173.881 15.0287C172.343 11.7703 170.455 9.49935 168.148 8.31449C163.114 5.74731 155.983 8.11701 145.425 11.6716C138.783 13.9425 130.673 16.6085 119.836 19.3731C92.0096 26.3835 52.507 27.2724 0.139849 23.5204V24.1125C19.6464 25.4949 36.2165 26.186 50.4794 26.2848C81.3823 26.3835 103.616 23.8163 119.906 19.6693C130.743 16.9047 138.853 14.14 145.495 11.9678C156.123 8.31449 163.184 5.94478 168.218 8.51197C171.015 9.8943 173.182 12.9552 174.93 17.5958V17.2996H174.86Z" fill="#217EFD"/>
<path d="M174.86 17.1025C173.112 12.6593 171.085 9.79586 168.358 8.41353C163.604 6.04382 157.031 8.41353 147.383 11.8694C140.322 14.4365 131.512 17.5961 119.417 20.4595C91.6599 27.075 52.3671 27.5687 0.0698294 23.7179V24.3103C52.437 28.0624 91.7298 27.4699 119.487 20.657C131.582 17.7936 140.391 14.5353 147.453 11.9681C161.856 6.73499 169.756 3.87159 174.86 17.1025Z" fill="#217EFD"/>
<path d="M174.86 16.806C173.182 12.5602 171.155 9.79557 168.498 8.61072C163.883 6.43848 157.801 8.80819 148.991 12.264C141.58 15.1274 132.281 18.7807 119.137 21.7428C91.5201 27.9633 52.2971 28.2598 0.0698294 24.3103V25.0012C52.2971 28.852 91.59 28.3583 119.137 22.0391C132.281 18.9782 141.58 15.3249 148.991 12.4615C157.801 9.00567 163.883 6.63596 168.498 8.70945C171.085 9.99305 173.182 12.7577 174.86 17.0034V16.806Z" fill="#217EFD"/>
<path d="M174.86 16.5096C173.182 12.3626 171.155 9.79544 168.638 8.61059C164.233 6.63583 158.43 9.10428 150.25 12.5601C142.978 15.621 132.841 19.9654 118.857 22.9276C91.4503 28.6544 52.2973 28.8518 0.139849 24.8036V25.4948C52.2973 29.3455 91.4503 29.0493 118.857 23.2238C132.841 20.2617 143.048 15.9172 150.32 12.7576C158.5 9.30175 164.303 6.83331 168.638 8.70933C171.225 9.89418 173.182 12.4614 174.86 16.7071V16.5096Z" fill="#217EFD"/>
<path d="M174.86 16.1148C169.966 4.26628 162.765 7.52462 151.159 12.8565C143.677 16.3123 133.19 21.1504 118.438 24.0138C91.2404 29.3457 52.0874 29.2469 0.0698294 25.1987V25.8899C52.1573 29.7406 91.2404 29.7406 118.438 24.3101C133.19 21.3479 143.747 16.5098 151.159 13.0539C162.765 7.7221 169.896 4.36501 174.79 16.3123V16.1148H174.86Z" fill="#217EFD"/>
<path d="M174.86 15.8185C173.182 11.869 171.224 9.49926 168.707 8.51188C164.512 6.93208 158.989 9.69674 151.928 13.2513C144.307 17.1021 133.4 22.5326 118.088 25.2973C91.0307 30.2342 52.0175 29.8395 0.0698294 25.6925V26.4822C52.0175 30.4317 91.1006 30.6292 118.088 25.5935C133.47 22.7301 144.307 17.2995 151.928 13.4488C158.989 9.89421 164.443 7.12952 168.638 8.70933C171.155 9.59797 173.112 12.0664 174.79 16.016V15.8185H174.86Z" fill="#217EFD"/>
<path d="M174.86 15.4235C173.182 11.5728 171.224 9.20305 168.707 8.41315C164.582 7.03082 159.269 9.89421 152.487 13.5475C144.307 17.9907 133.54 23.8162 117.739 26.4822C90.8908 30.9254 51.9476 30.3329 0.0698294 26.186V26.9761C51.9476 30.9256 90.9608 31.3203 117.739 26.8771C133.61 24.2112 144.307 18.2869 152.487 13.8437C159.199 10.1904 164.513 7.22826 168.638 8.61059C171.085 9.40049 173.112 11.7702 174.79 15.7197V15.5223L174.86 15.4235Z" fill="#217EFD"/>
<path d="M174.86 15.0287C169.966 3.97002 163.114 7.91954 152.976 13.9425C144.656 18.8794 133.68 25.2974 117.459 27.7658C90.821 31.7154 51.8778 30.9254 0.139849 26.7785V27.4696C49.0112 31.2217 86.3464 32.1103 112.635 28.7532C114.313 28.5557 115.921 28.3583 117.529 28.0621C133.819 25.5936 144.796 19.0769 153.116 14.14C159.618 10.2892 164.722 7.22837 168.777 8.41323C171.294 9.10439 173.252 11.3754 174.93 15.2261V15.0287H174.86Z" fill="#217EFD"/>
<path d="M174.86 14.5351C169.896 3.67396 163.184 7.91969 153.326 14.1402C144.866 19.472 133.68 26.6799 117.179 28.8521H117.109C90.7511 32.3079 51.8078 31.2218 0.139849 27.0748V27.8647C51.8778 31.913 90.7511 32.8016 117.109 29.2471H117.179C133.68 26.9761 144.866 19.867 153.326 14.4364C163.184 8.11717 169.896 3.87144 174.79 14.8313V14.6339L174.86 14.5351Z" fill="#217EFD"/>
<path d="M174.86 14.14C173.112 10.388 171.085 8.31448 168.638 7.82079C168.498 7.82079 168.358 7.82079 168.218 7.82079C164.303 7.3271 159.549 10.5854 153.606 14.6337C145.006 20.558 133.61 28.3583 116.76 30.2343C91.2405 33.0977 53.2761 32.0116 0.139849 27.5684V28.3583C53.346 32.604 91.2405 33.4926 116.76 30.5305C133.61 28.6545 145.006 20.7554 153.676 14.8312C159.828 10.5855 164.652 7.22836 168.638 8.01827C171.155 8.51196 173.182 10.6842 174.86 14.4362V14.14Z" fill="#217EFD"/>
<path d="M174.86 13.6467C173.112 9.89465 171.085 7.82115 168.498 7.52494C168.498 7.52494 168.428 7.52494 168.358 7.52494C164.373 7.03125 159.618 10.4871 153.675 14.9303C144.936 21.3482 133.33 29.8397 116.34 31.4195C91.0307 33.6905 53.2061 32.4069 0.0698294 27.9637V28.7536C53.2061 32.9993 91.0307 34.1842 116.34 31.8144C117.599 31.7157 118.857 31.5182 120.046 31.3208C135.078 28.951 145.635 21.1508 153.745 15.1278C159.758 10.6845 164.512 7.12999 168.498 7.72241C171.015 8.11737 173.112 10.1909 174.86 13.9429V13.6467Z" fill="#217EFD"/>
<path d="M174.86 13.2512C173.112 9.59794 171.085 7.62319 168.638 7.32697C168.638 7.32697 168.498 7.32697 168.428 7.32697C164.443 6.93202 159.688 10.5853 153.815 15.226C145.006 22.1376 133.19 31.419 116.061 32.6039C90.9609 34.3811 53.2761 32.8015 0.139849 28.3583V29.148C53.2761 33.3938 91.0308 34.7761 116.061 32.9001C117.809 32.8013 119.487 32.6039 121.095 32.3076C135.567 29.8392 145.915 21.644 153.885 15.3247C159.758 10.6841 164.513 6.93202 168.428 7.32697H168.568C171.085 7.62319 173.112 9.69668 174.79 13.35V13.1525L174.86 13.2512Z" fill="#217EFD"/>
<path d="M174.86 12.7576C169.756 2.29135 162.974 7.9194 153.815 15.5222C144.866 23.0263 132.91 32.9988 115.641 33.8875C90.8209 35.0723 53.1361 33.2955 0.0698294 28.7536V29.543C53.2061 33.7887 90.8209 35.4673 115.641 34.1837C117.809 34.0849 119.836 33.7887 121.794 33.4925C135.777 30.9253 145.985 22.3351 153.885 15.7197C159.688 10.7828 164.373 6.93203 168.288 7.1295C168.428 7.1295 168.568 7.1295 168.777 7.1295C171.154 7.42571 173.112 9.40047 174.86 12.955V12.7576Z" fill="#217EFD"/>
<path d="M174.86 12.2639C169.686 1.79768 162.905 7.82069 153.815 15.9172C144.796 23.915 132.631 34.7761 115.362 35.1711C90.7511 35.7635 53.2062 33.69 0.139849 29.2468V30.0367C53.2062 34.2824 90.7511 36.2572 115.362 35.566C117.809 35.566 120.186 35.1711 122.423 34.7761C136.057 32.1102 146.125 23.1251 153.955 16.1147C163.044 8.01817 169.756 1.99516 174.93 12.5601V12.3626L174.86 12.2639Z" fill="#217EFD"/>
<path d="M174.86 11.7705C172.972 8.01846 170.805 6.14244 168.078 6.24118C164.093 6.43866 159.479 10.7831 153.746 16.115C144.587 24.7052 132.281 36.3562 115.012 36.3562C90.6812 36.3562 53.2761 33.9865 0.139849 29.5433V30.4319C53.2062 34.6777 90.6812 36.8499 114.942 36.7512C117.669 36.7512 120.326 36.455 122.773 35.9613C136.057 33.1966 146.055 23.7178 153.815 16.4112C162.905 7.82098 169.616 1.50176 174.86 11.968V11.7705Z" fill="#217EFD"/>
<path d="M174.86 11.2766C172.903 7.52456 170.665 5.64854 167.938 5.94475C163.883 6.3397 159.339 10.8816 153.606 16.6084C144.377 25.7911 131.862 38.232 114.662 37.7383C90.6113 37.1459 53.2761 34.4799 0.139849 30.0367V30.8267C53.2062 35.0724 90.5414 37.5409 114.592 38.0345C117.599 38.0345 120.396 37.8371 123.122 37.2446C136.127 34.3812 146.055 24.5075 153.745 16.7072C159.409 11.0791 164.023 6.43844 168.008 6.04349C170.805 5.74728 172.972 7.62329 174.93 11.3753V11.1779L174.86 11.2766Z" fill="#217EFD"/>
<path d="M174.86 10.684C172.903 6.932 170.595 5.05598 167.799 5.45094C163.743 6.04336 158.919 11.079 153.466 16.8058C144.097 26.5808 131.512 39.8117 114.313 38.9231C90.5414 37.6395 53.2761 34.7761 0.139849 30.3329V31.2215C53.2062 35.4672 90.4714 38.1332 114.243 39.318C117.459 39.4167 120.465 39.2193 123.332 38.5281C136.057 35.566 145.915 25.1985 153.606 17.102C159.059 11.3752 163.813 6.33958 167.869 5.74715C170.735 5.3522 172.972 7.12948 174.93 10.8815V10.684H174.86Z" fill="#217EFD"/>
<path d="M174.86 10.191C172.832 6.43892 170.455 4.66164 167.589 5.15533C163.464 5.94523 158.64 11.2771 153.186 17.3001C143.747 27.6675 130.953 41.6883 113.893 40.306C90.4014 38.3312 53.276 35.2704 0.0698294 30.8272V31.7158C53.1361 35.8628 90.3315 38.8249 113.753 40.7009C117.109 40.9972 120.326 40.7009 123.332 39.911C135.847 36.7514 145.635 25.989 153.326 17.4976C158.779 11.4745 163.534 6.24144 167.659 5.3528C170.525 4.76037 172.902 6.53766 174.86 10.3884V10.191Z" fill="#217EFD"/>
<path d="M174.86 9.5983C169.197 -0.966646 161.995 7.32733 152.976 17.6948C143.468 28.6547 130.533 43.5641 113.544 41.5894C90.4014 38.9234 53.276 35.5663 0.0698294 31.2219V32.1105C53.2061 36.2575 90.2616 39.4171 113.404 41.9843C116.9 42.3793 120.186 41.9843 123.332 41.1944C135.637 37.9361 145.425 26.6799 153.046 17.7935C158.5 11.4743 163.324 5.945 167.379 4.95762C170.316 4.26646 172.693 5.945 174.79 9.79578V9.49957L174.86 9.5983Z" fill="#217EFD"/>
<path d="M174.86 9.00583C169.057 -1.55912 161.856 7.1298 152.697 18.0897C142.559 30.2345 129.974 45.4401 113.124 42.9716C90.2616 39.6145 53.276 35.9615 0.0698294 31.7158V32.6042C53.2061 36.6524 90.1917 40.1082 112.984 43.3666C116.69 43.8603 120.186 43.5641 123.472 42.6754C135.357 39.4171 144.796 27.9635 152.836 18.2872C161.926 7.32728 169.127 -1.36165 174.86 9.2033V8.90709V9.00583Z" fill="#217EFD"/>
<path d="M174.86 8.4134C168.987 -2.25029 161.646 6.93233 152.417 18.4847C142.209 31.3206 129.485 47.3161 112.775 44.2552C90.2616 40.207 53.3459 36.3563 0.0698294 32.1105V32.9991C53.2061 37.0474 90.1218 40.7007 112.635 44.7489C116.48 45.4401 120.046 45.1439 123.402 44.1565C135.078 40.7994 144.586 28.8521 152.557 18.7809C161.716 7.22855 169.057 -1.95407 174.86 8.70961V8.4134Z" fill="#217EFD"/>
<path d="M174.86 7.82091C172.623 3.8714 170.036 2.29159 166.89 3.57518C162.555 5.25373 157.661 11.6717 152.137 18.8796C141.86 32.4066 128.925 49.1921 112.495 45.5388C90.3316 40.7006 53.4159 36.6524 0.139849 32.4066V33.394C53.346 37.3435 90.1219 41.293 112.285 46.0325C116.131 46.8224 119.836 46.6249 123.262 45.5388C134.798 42.0829 144.237 29.5432 152.277 19.077C161.576 6.83353 168.917 -2.74404 174.93 8.01839V7.82091H174.86Z" fill="#217EFD"/>
<path d="M174.86 7.22842C172.553 3.18017 169.896 1.6991 166.68 3.18017C162.345 5.05619 157.381 11.7704 151.788 19.3732C141.37 33.4927 128.366 51.1668 112.145 46.921C90.3316 41.293 53.4858 36.9485 0.139849 32.8015V33.7889C53.346 37.6397 90.0519 41.7867 111.866 47.4147C115.781 48.4021 119.487 48.2046 123.052 47.0198C134.379 43.3665 143.887 30.4318 151.858 19.5707C157.451 11.9678 162.345 5.25367 166.68 3.37765C169.896 1.99532 172.553 3.37765 174.86 7.4259V7.12968V7.22842Z" fill="#217EFD"/>
</g>
</svg>
