<svg width="300" height="300" viewBox="0 0 300 300" fill="none" xmlns="http://www.w3.org/2000/svg">
<path d="M290.792 122.156H158.842V50.8723C186.676 55.164 208.022 79.344 208.022 108.339C208.022 113.259 211.999 117.341 217.021 117.341C222.044 117.341 226.02 113.364 226.02 108.339C226.02 66.3643 191.908 32.2401 149.948 32.2401C145.03 32.2401 140.949 36.2177 140.949 41.2421V122.261H20.9278C33.7984 62.7006 86.7457 18.0042 149.948 18.0042C154.866 18.0042 158.947 14.0265 158.947 9.00209C158.947 3.97767 154.97 0 149.948 0C67.2829 0 0 67.3063 0 150V168.842C0 173.761 3.97628 177.844 8.99895 177.844H140.949V258.863C140.949 263.782 144.925 267.865 149.948 267.865C154.97 267.865 158.947 263.887 158.947 258.863V177.844H278.968C266.202 237.299 213.254 281.996 150.052 281.996C145.134 281.996 141.053 285.973 141.053 290.998C141.053 296.022 145.03 300 150.052 300C232.717 300 300 232.694 300 150V131.158C300 126.239 296.024 122.156 291.001 122.156H290.792ZM17.9979 159.839V150C17.9979 146.65 18.1025 143.405 18.4165 140.161H140.949V159.839H17.9979ZM158.947 159.839V140.161H281.897V150C281.897 153.35 281.793 156.595 281.479 159.839H158.947Z" fill="white"/>
</svg>
