<svg width="192" height="190" viewBox="0 0 192 190" fill="none" xmlns="http://www.w3.org/2000/svg">
<path d="M2.18011 1.71127H17.8775" stroke="#979797" stroke-width="3" stroke-linecap="square"/>
<path d="M2.25966 3.82792L2.25966 17.7698" stroke="#979797" stroke-width="3" stroke-linecap="square"/>
<path d="M2.18011 188.289H17.8775" stroke="#979797" stroke-width="3" stroke-linecap="square"/>
<path d="M2.25966 186.172L2.25966 172.23" stroke="#979797" stroke-width="3" stroke-linecap="square"/>
<path d="M189.82 188.289H174.123" stroke="#979797" stroke-width="3" stroke-linecap="square"/>
<path d="M189.74 186.172L189.74 172.23" stroke="#979797" stroke-width="3" stroke-linecap="square"/>
<path d="M189.82 1.71127H174.123" stroke="#979797" stroke-width="3" stroke-linecap="square"/>
<path d="M189.74 3.82792L189.74 17.7698" stroke="#979797" stroke-width="3" stroke-linecap="square"/>
<path fill-rule="evenodd" clip-rule="evenodd" d="M31 59.6457H63.171V28H31V59.6457ZM58.2534 54.8085H35.9176V32.8385H58.2534V54.8085Z" fill="#4E5053"/>
<path fill-rule="evenodd" clip-rule="evenodd" d="M53.308 37.7624H40.983V49.8858H53.308V37.7624Z" fill="#4E5053"/>
<path fill-rule="evenodd" clip-rule="evenodd" d="M163 28.0012H130.828V59.647H163V28.0012ZM135.746 32.8385H158.083V54.8085H135.746V32.8385Z" fill="#4E5053"/>
<path fill-rule="evenodd" clip-rule="evenodd" d="M153.041 37.7624H140.715V49.8858H153.041V37.7624Z" fill="#4E5053"/>
<path fill-rule="evenodd" clip-rule="evenodd" d="M31.0957 157.799H63.2667V126.154H31.0957V157.799ZM58.3492 152.962H36.0134V130.99H58.3492V152.962Z" fill="#4E5053"/>
<path fill-rule="evenodd" clip-rule="evenodd" d="M53.308 135.915H40.983V148.04H53.308V135.915Z" fill="#4E5053"/>
<path fill-rule="evenodd" clip-rule="evenodd" d="M83.7918 28.0012H78.5139V33.1926H83.7918V28.0012Z" fill="#4E5053"/>
<path fill-rule="evenodd" clip-rule="evenodd" d="M94.3501 28.0012H89.0728V33.1926H94.3501V28.0012Z" fill="#4E5053"/>
<path fill-rule="evenodd" clip-rule="evenodd" d="M99.6301 28.0012H94.3526V33.1926H99.6301V28.0012Z" fill="#4E5053"/>
<path fill-rule="evenodd" clip-rule="evenodd" d="M110.188 28.0012H104.911V33.1926H110.188V28.0012Z" fill="#4E5053"/>
<path fill-rule="evenodd" clip-rule="evenodd" d="M115.469 28.0012H110.19V33.1926H115.469V28.0012Z" fill="#4E5053"/>
<path fill-rule="evenodd" clip-rule="evenodd" d="M73.2336 33.1913H67.9557V38.3827H73.2336V33.1913Z" fill="#4E5053"/>
<path fill-rule="evenodd" clip-rule="evenodd" d="M89.0716 33.1913H83.7937V38.3827H89.0716V33.1913Z" fill="#4E5053"/>
<path fill-rule="evenodd" clip-rule="evenodd" d="M94.3489 33.1913H89.0728V38.3827H94.3489V33.1913Z" fill="#4E5053"/>
<path fill-rule="evenodd" clip-rule="evenodd" d="M110.188 33.1913H104.911V38.3827H110.188V33.1913Z" fill="#4E5053"/>
<path fill-rule="evenodd" clip-rule="evenodd" d="M115.469 33.1913H110.19V38.3827H115.469V33.1913Z" fill="#4E5053"/>
<path fill-rule="evenodd" clip-rule="evenodd" d="M126.029 33.1913H120.749V38.3827H126.029V33.1913Z" fill="#4E5053"/>
<path fill-rule="evenodd" clip-rule="evenodd" d="M78.5127 38.3839H73.2348V43.5752H78.5127V38.3839Z" fill="#4E5053"/>
<path fill-rule="evenodd" clip-rule="evenodd" d="M83.7918 38.3839H78.5139V43.5752H83.7918V38.3839Z" fill="#4E5053"/>
<path fill-rule="evenodd" clip-rule="evenodd" d="M89.0716 38.3839H83.7937V43.5752H89.0716V38.3839Z" fill="#4E5053"/>
<path fill-rule="evenodd" clip-rule="evenodd" d="M94.3501 38.3839H89.0728V43.5752H94.3501V38.3839Z" fill="#4E5053"/>
<path fill-rule="evenodd" clip-rule="evenodd" d="M104.909 38.3839H99.6313V43.5752H104.909V38.3839Z" fill="#4E5053"/>
<path fill-rule="evenodd" clip-rule="evenodd" d="M110.188 38.3839H104.911V43.5752H110.188V38.3839Z" fill="#4E5053"/>
<path fill-rule="evenodd" clip-rule="evenodd" d="M115.469 38.3839H110.19V43.5752H115.469V38.3839Z" fill="#4E5053"/>
<path fill-rule="evenodd" clip-rule="evenodd" d="M120.749 38.3839H115.47V43.5752H120.749V38.3839Z" fill="#4E5053"/>
<path fill-rule="evenodd" clip-rule="evenodd" d="M78.5127 43.574H73.2348V48.7653H78.5127V43.574Z" fill="#4E5053"/>
<path fill-rule="evenodd" clip-rule="evenodd" d="M83.7918 43.574H78.5139V48.7653H83.7918V43.574Z" fill="#4E5053"/>
<path fill-rule="evenodd" clip-rule="evenodd" d="M89.0716 43.574H83.7937V48.7653H89.0716V43.574Z" fill="#4E5053"/>
<path fill-rule="evenodd" clip-rule="evenodd" d="M99.6301 43.574H94.3526V48.7653H99.6301V43.574Z" fill="#4E5053"/>
<path fill-rule="evenodd" clip-rule="evenodd" d="M104.909 43.574H99.6313V48.7653H104.909V43.574Z" fill="#4E5053"/>
<path fill-rule="evenodd" clip-rule="evenodd" d="M120.749 43.574H115.47V48.7653H120.749V43.574Z" fill="#4E5053"/>
<path fill-rule="evenodd" clip-rule="evenodd" d="M83.7918 48.7653H78.5139V53.9579H83.7918V48.7653Z" fill="#4E5053"/>
<path fill-rule="evenodd" clip-rule="evenodd" d="M89.0716 48.7653H83.7937V53.9579H89.0716V48.7653Z" fill="#4E5053"/>
<path fill-rule="evenodd" clip-rule="evenodd" d="M94.3501 48.7653H89.0728V53.9579H94.3501V48.7653Z" fill="#4E5053"/>
<path fill-rule="evenodd" clip-rule="evenodd" d="M99.6301 53.9567H94.3526V59.148H99.6301V53.9567Z" fill="#4E5053"/>
<path fill-rule="evenodd" clip-rule="evenodd" d="M104.909 48.7653H99.6313V53.9579H104.909V48.7653Z" fill="#4E5053"/>
<path fill-rule="evenodd" clip-rule="evenodd" d="M115.469 48.7653H110.19V53.9579H115.469V48.7653Z" fill="#4E5053"/>
<path fill-rule="evenodd" clip-rule="evenodd" d="M120.749 48.7653H115.47V53.9579H120.749V48.7653Z" fill="#4E5053"/>
<path fill-rule="evenodd" clip-rule="evenodd" d="M78.5127 53.9567H73.2348V59.148H78.5127V53.9567Z" fill="#4E5053"/>
<path fill-rule="evenodd" clip-rule="evenodd" d="M83.7918 53.9567H78.5139V59.148H83.7918V53.9567Z" fill="#4E5053"/>
<path fill-rule="evenodd" clip-rule="evenodd" d="M115.469 53.9567H110.19V59.148H115.469V53.9567Z" fill="#4E5053"/>
<path fill-rule="evenodd" clip-rule="evenodd" d="M120.749 53.9567H115.47V59.148H120.749V53.9567Z" fill="#4E5053"/>
<path fill-rule="evenodd" clip-rule="evenodd" d="M78.5127 59.148H73.2348V64.3393H78.5127V59.148Z" fill="#4E5053"/>
<path fill-rule="evenodd" clip-rule="evenodd" d="M73.2336 28.0012H67.9557V33.1926H73.2336V28.0012Z" fill="#4E5053"/>
<path fill-rule="evenodd" clip-rule="evenodd" d="M73.2336 38.3839H67.9557V43.5752H73.2336V38.3839Z" fill="#4E5053"/>
<path fill-rule="evenodd" clip-rule="evenodd" d="M73.2336 48.7641H67.9557V53.9567H73.2336V48.7641Z" fill="#4E5053"/>
<path fill-rule="evenodd" clip-rule="evenodd" d="M73.2336 59.148H67.9557V64.3393H73.2336V59.148Z" fill="#4E5053"/>
<path fill-rule="evenodd" clip-rule="evenodd" d="M83.7918 59.148H78.5139V64.3393H83.7918V59.148Z" fill="#4E5053"/>
<path fill-rule="evenodd" clip-rule="evenodd" d="M94.3501 59.148H89.0728V64.3393H94.3501V59.148Z" fill="#4E5053"/>
<path fill-rule="evenodd" clip-rule="evenodd" d="M99.6301 59.148H94.3526V64.3393H99.6301V59.148Z" fill="#4E5053"/>
<path fill-rule="evenodd" clip-rule="evenodd" d="M104.909 59.148H99.6313V64.3393H104.909V59.148Z" fill="#4E5053"/>
<path fill-rule="evenodd" clip-rule="evenodd" d="M110.188 59.148H104.911V64.3393H110.188V59.148Z" fill="#4E5053"/>
<path fill-rule="evenodd" clip-rule="evenodd" d="M115.469 59.148H110.19V64.3393H115.469V59.148Z" fill="#4E5053"/>
<path fill-rule="evenodd" clip-rule="evenodd" d="M120.749 59.148H115.47V64.3393H120.749V59.148Z" fill="#4E5053"/>
<path fill-rule="evenodd" clip-rule="evenodd" d="M78.5127 64.3393H73.2348V69.5294H78.5127V64.3393Z" fill="#4E5053"/>
<path fill-rule="evenodd" clip-rule="evenodd" d="M83.7918 64.3393H78.5139V69.5294H83.7918V64.3393Z" fill="#4E5053"/>
<path fill-rule="evenodd" clip-rule="evenodd" d="M89.0716 64.3393H83.7937V69.5294H89.0716V64.3393Z" fill="#4E5053"/>
<path fill-rule="evenodd" clip-rule="evenodd" d="M104.91 64.3393H99.6313V69.5294H104.91V64.3393Z" fill="#4E5053"/>
<path fill-rule="evenodd" clip-rule="evenodd" d="M115.469 64.3393H110.19V69.5294H115.469V64.3393Z" fill="#4E5053"/>
<path fill-rule="evenodd" clip-rule="evenodd" d="M120.749 64.3393H115.47V69.5294H120.749V64.3393Z" fill="#4E5053"/>
<path fill-rule="evenodd" clip-rule="evenodd" d="M126.026 28.0012H120.749V33.1926H126.026V28.0012Z" fill="#4E5053"/>
<path fill-rule="evenodd" clip-rule="evenodd" d="M126.026 38.3839H120.749V43.5752H126.026V38.3839Z" fill="#4E5053"/>
<path fill-rule="evenodd" clip-rule="evenodd" d="M126.026 48.7653H120.749V53.9579H126.026V48.7653Z" fill="#4E5053"/>
<path fill-rule="evenodd" clip-rule="evenodd" d="M126.026 64.3393H120.749V69.5294H126.026V64.3393Z" fill="#4E5053"/>
<path fill-rule="evenodd" clip-rule="evenodd" d="M78.5127 69.5393H73.2348V74.7307H78.5127V69.5393Z" fill="#4E5053"/>
<path fill-rule="evenodd" clip-rule="evenodd" d="M104.91 69.5393H99.6313V74.7307H104.91V69.5393Z" fill="#4E5053"/>
<path fill-rule="evenodd" clip-rule="evenodd" d="M78.5127 74.7294H73.2348V79.9195H78.5127V74.7294Z" fill="#4E5053"/>
<path fill-rule="evenodd" clip-rule="evenodd" d="M94.3501 74.7294H89.0728V79.9195H94.3501V74.7294Z" fill="#4E5053"/>
<path fill-rule="evenodd" clip-rule="evenodd" d="M99.6301 64.3393H94.3526V69.5294H99.6301V64.3393Z" fill="#4E5053"/>
<path fill-rule="evenodd" clip-rule="evenodd" d="M104.909 74.7294H99.6313V79.9195H104.909V74.7294Z" fill="#4E5053"/>
<path fill-rule="evenodd" clip-rule="evenodd" d="M110.188 74.7294H104.911V79.9195H110.188V74.7294Z" fill="#4E5053"/>
<path fill-rule="evenodd" clip-rule="evenodd" d="M115.469 74.7294H110.19V79.9195H115.469V74.7294Z" fill="#4E5053"/>
<path fill-rule="evenodd" clip-rule="evenodd" d="M78.5127 79.922H73.2348V85.1133H78.5127V79.922Z" fill="#4E5053"/>
<path fill-rule="evenodd" clip-rule="evenodd" d="M94.3501 79.922H89.0728V85.1133H94.3501V79.922Z" fill="#4E5053"/>
<path fill-rule="evenodd" clip-rule="evenodd" d="M104.909 79.922H99.6313V85.1133H104.909V79.922Z" fill="#4E5053"/>
<path fill-rule="evenodd" clip-rule="evenodd" d="M110.188 79.922H104.911V85.1133H110.188V79.922Z" fill="#4E5053"/>
<path fill-rule="evenodd" clip-rule="evenodd" d="M115.469 79.922H110.19V85.1133H115.469V79.922Z" fill="#4E5053"/>
<path fill-rule="evenodd" clip-rule="evenodd" d="M99.6301 85.1121H94.3526V90.3034H99.6301V85.1121Z" fill="#4E5053"/>
<path fill-rule="evenodd" clip-rule="evenodd" d="M104.909 85.1121H99.6313V90.3034H104.909V85.1121Z" fill="#4E5053"/>
<path fill-rule="evenodd" clip-rule="evenodd" d="M110.188 85.1121H104.911V90.3034H110.188V85.1121Z" fill="#4E5053"/>
<path fill-rule="evenodd" clip-rule="evenodd" d="M115.469 85.1121H110.19V90.3034H115.469V85.1121Z" fill="#4E5053"/>
<path fill-rule="evenodd" clip-rule="evenodd" d="M78.5127 90.3034H73.2348V95.4948H78.5127V90.3034Z" fill="#4E5053"/>
<path fill-rule="evenodd" clip-rule="evenodd" d="M83.7918 90.3034H78.5139V95.4948H83.7918V90.3034Z" fill="#4E5053"/>
<path fill-rule="evenodd" clip-rule="evenodd" d="M89.0716 90.3034H83.7937V95.4948H89.0716V90.3034Z" fill="#4E5053"/>
<path fill-rule="evenodd" clip-rule="evenodd" d="M94.3501 90.3034H89.0728V95.4948H94.3501V90.3034Z" fill="#4E5053"/>
<path fill-rule="evenodd" clip-rule="evenodd" d="M99.6301 90.3034H94.3526V95.4948H99.6301V90.3034Z" fill="#4E5053"/>
<path fill-rule="evenodd" clip-rule="evenodd" d="M104.909 90.3034H99.6313V95.4948H104.909V90.3034Z" fill="#4E5053"/>
<path fill-rule="evenodd" clip-rule="evenodd" d="M110.188 90.3034H104.911V95.4948H110.188V90.3034Z" fill="#4E5053"/>
<path fill-rule="evenodd" clip-rule="evenodd" d="M120.749 90.3034H115.47V95.4948H120.749V90.3034Z" fill="#4E5053"/>
<path fill-rule="evenodd" clip-rule="evenodd" d="M78.5127 95.496H73.2348V100.687H78.5127V95.496Z" fill="#4E5053"/>
<path fill-rule="evenodd" clip-rule="evenodd" d="M89.0716 95.496H83.7937V100.687H89.0716V95.496Z" fill="#4E5053"/>
<path fill-rule="evenodd" clip-rule="evenodd" d="M110.188 95.496H104.911V100.687H110.188V95.496Z" fill="#4E5053"/>
<path fill-rule="evenodd" clip-rule="evenodd" d="M115.469 95.496H110.19V100.687H115.469V95.496Z" fill="#4E5053"/>
<path fill-rule="evenodd" clip-rule="evenodd" d="M120.749 95.496H115.47V100.687H120.749V95.496Z" fill="#4E5053"/>
<path fill-rule="evenodd" clip-rule="evenodd" d="M83.7918 100.686H78.5139V105.876H83.7918V100.686Z" fill="#4E5053"/>
<path fill-rule="evenodd" clip-rule="evenodd" d="M94.3501 100.686H89.0728V105.876H94.3501V100.686Z" fill="#4E5053"/>
<path fill-rule="evenodd" clip-rule="evenodd" d="M110.188 100.686H104.911V105.876H110.188V100.686Z" fill="#4E5053"/>
<path fill-rule="evenodd" clip-rule="evenodd" d="M115.469 100.686H110.19V105.876H115.469V100.686Z" fill="#4E5053"/>
<path fill-rule="evenodd" clip-rule="evenodd" d="M120.749 100.686H115.47V105.876H120.749V100.686Z" fill="#4E5053"/>
<path fill-rule="evenodd" clip-rule="evenodd" d="M78.5127 105.875H73.2348V111.068H78.5127V105.875Z" fill="#4E5053"/>
<path fill-rule="evenodd" clip-rule="evenodd" d="M89.0716 105.875H83.7937V111.068H89.0716V105.875Z" fill="#4E5053"/>
<path fill-rule="evenodd" clip-rule="evenodd" d="M115.469 105.875H110.19V111.068H115.469V105.875Z" fill="#4E5053"/>
<path fill-rule="evenodd" clip-rule="evenodd" d="M78.5127 111.068H73.2348V116.26H78.5127V111.068Z" fill="#4E5053"/>
<path fill-rule="evenodd" clip-rule="evenodd" d="M83.7918 111.068H78.5139V116.26H83.7918V111.068Z" fill="#4E5053"/>
<path fill-rule="evenodd" clip-rule="evenodd" d="M89.0716 111.068H83.7937V116.26H89.0716V111.068Z" fill="#4E5053"/>
<path fill-rule="evenodd" clip-rule="evenodd" d="M99.6301 111.068H94.3526V116.26H99.6301V111.068Z" fill="#4E5053"/>
<path fill-rule="evenodd" clip-rule="evenodd" d="M104.909 111.068H99.6313V116.26H104.909V111.068Z" fill="#4E5053"/>
<path fill-rule="evenodd" clip-rule="evenodd" d="M46.8367 69.5393H41.5589V74.7307H46.8367V69.5393Z" fill="#4E5053"/>
<path fill-rule="evenodd" clip-rule="evenodd" d="M52.1158 69.5393H46.838V74.7307H52.1158V69.5393Z" fill="#4E5053"/>
<path fill-rule="evenodd" clip-rule="evenodd" d="M57.3955 69.5393H52.1178V74.7307H57.3955V69.5393Z" fill="#4E5053"/>
<path fill-rule="evenodd" clip-rule="evenodd" d="M62.6747 69.5393H57.3969V74.7307H62.6747V69.5393Z" fill="#4E5053"/>
<path fill-rule="evenodd" clip-rule="evenodd" d="M67.9538 69.5393H62.6761V74.7307H67.9538V69.5393Z" fill="#4E5053"/>
<path fill-rule="evenodd" clip-rule="evenodd" d="M73.2336 69.5393H67.9557V74.7307H73.2336V69.5393Z" fill="#4E5053"/>
<path fill-rule="evenodd" clip-rule="evenodd" d="M52.1158 74.7294H46.838V79.9195H52.1158V74.7294Z" fill="#4E5053"/>
<path fill-rule="evenodd" clip-rule="evenodd" d="M57.3955 74.7294H52.1178V79.9195H57.3955V74.7294Z" fill="#4E5053"/>
<path fill-rule="evenodd" clip-rule="evenodd" d="M62.6747 74.7294H57.3969V79.9195H62.6747V74.7294Z" fill="#4E5053"/>
<path fill-rule="evenodd" clip-rule="evenodd" d="M67.9538 74.7294H62.6761V79.9195H67.9538V74.7294Z" fill="#4E5053"/>
<path fill-rule="evenodd" clip-rule="evenodd" d="M73.2336 74.7294H67.9557V79.9195H73.2336V74.7294Z" fill="#4E5053"/>
<path fill-rule="evenodd" clip-rule="evenodd" d="M46.8367 79.922H41.5589V85.1133H46.8367V79.922Z" fill="#4E5053"/>
<path fill-rule="evenodd" clip-rule="evenodd" d="M62.6747 79.922H57.3969V85.1133H62.6747V79.922Z" fill="#4E5053"/>
<path fill-rule="evenodd" clip-rule="evenodd" d="M67.9538 79.922H62.6761V85.1133H67.9538V79.922Z" fill="#4E5053"/>
<path fill-rule="evenodd" clip-rule="evenodd" d="M73.2336 79.922H67.9557V85.1133H73.2336V79.922Z" fill="#4E5053"/>
<path fill-rule="evenodd" clip-rule="evenodd" d="M46.8367 85.1121H41.5589V90.3034H46.8367V85.1121Z" fill="#4E5053"/>
<path fill-rule="evenodd" clip-rule="evenodd" d="M52.1158 85.1121H46.838V90.3034H52.1158V85.1121Z" fill="#4E5053"/>
<path fill-rule="evenodd" clip-rule="evenodd" d="M57.3955 85.1121H52.1178V90.3034H57.3955V85.1121Z" fill="#4E5053"/>
<path fill-rule="evenodd" clip-rule="evenodd" d="M52.1158 90.3034H46.838V95.4948H52.1158V90.3034Z" fill="#4E5053"/>
<path fill-rule="evenodd" clip-rule="evenodd" d="M57.3955 90.3034H52.1178V95.4948H57.3955V90.3034Z" fill="#4E5053"/>
<path fill-rule="evenodd" clip-rule="evenodd" d="M62.6747 90.3034H57.3969V95.4948H62.6747V90.3034Z" fill="#4E5053"/>
<path fill-rule="evenodd" clip-rule="evenodd" d="M67.9538 90.3034H62.6761V95.4948H67.9538V90.3034Z" fill="#4E5053"/>
<path fill-rule="evenodd" clip-rule="evenodd" d="M73.2336 90.3034H67.9557V95.4948H73.2336V90.3034Z" fill="#4E5053"/>
<path fill-rule="evenodd" clip-rule="evenodd" d="M46.8367 95.496H41.5589V100.687H46.8367V95.496Z" fill="#4E5053"/>
<path fill-rule="evenodd" clip-rule="evenodd" d="M57.3955 95.496H52.1178V100.687H57.3955V95.496Z" fill="#4E5053"/>
<path fill-rule="evenodd" clip-rule="evenodd" d="M62.6747 95.496H57.3969V100.687H62.6747V95.496Z" fill="#4E5053"/>
<path fill-rule="evenodd" clip-rule="evenodd" d="M46.8367 100.686H41.5589V105.876H46.8367V100.686Z" fill="#4E5053"/>
<path fill-rule="evenodd" clip-rule="evenodd" d="M57.3955 100.686H52.1178V105.876H57.3955V100.686Z" fill="#4E5053"/>
<path fill-rule="evenodd" clip-rule="evenodd" d="M67.9538 100.686H62.6761V105.876H67.9538V100.686Z" fill="#4E5053"/>
<path fill-rule="evenodd" clip-rule="evenodd" d="M73.2336 100.686H67.9557V105.876H73.2336V100.686Z" fill="#4E5053"/>
<path fill-rule="evenodd" clip-rule="evenodd" d="M46.8367 105.875H41.5589V111.068H46.8367V105.875Z" fill="#4E5053"/>
<path fill-rule="evenodd" clip-rule="evenodd" d="M52.1158 105.875H46.838V111.068H52.1158V105.875Z" fill="#4E5053"/>
<path fill-rule="evenodd" clip-rule="evenodd" d="M62.6747 105.875H57.3969V111.068H62.6747V105.875Z" fill="#4E5053"/>
<path fill-rule="evenodd" clip-rule="evenodd" d="M67.9538 105.875H62.6761V111.068H67.9538V105.875Z" fill="#4E5053"/>
<path fill-rule="evenodd" clip-rule="evenodd" d="M46.8367 111.068H41.5589V116.26H46.8367V111.068Z" fill="#4E5053"/>
<path fill-rule="evenodd" clip-rule="evenodd" d="M52.1158 111.068H46.838V116.26H52.1158V111.068Z" fill="#4E5053"/>
<path fill-rule="evenodd" clip-rule="evenodd" d="M36.2779 69.5393H31V74.7307H36.2779V69.5393Z" fill="#4E5053"/>
<path fill-rule="evenodd" clip-rule="evenodd" d="M41.5569 69.5393H36.2791V74.7307H41.5569V69.5393Z" fill="#4E5053"/>
<path fill-rule="evenodd" clip-rule="evenodd" d="M46.8367 64.3393H41.5589V69.5282H46.8367V64.3393Z" fill="#4E5053"/>
<path fill-rule="evenodd" clip-rule="evenodd" d="M57.3955 64.3393H52.1178V69.5282H57.3955V64.3393Z" fill="#4E5053"/>
<path fill-rule="evenodd" clip-rule="evenodd" d="M73.2336 64.3393H67.9557V69.5282H73.2336V64.3393Z" fill="#4E5053"/>
<path fill-rule="evenodd" clip-rule="evenodd" d="M36.2779 64.3393H31V69.5282H36.2779V64.3393Z" fill="#4E5053"/>
<path fill-rule="evenodd" clip-rule="evenodd" d="M36.2779 74.7294H31V79.9195H36.2779V74.7294Z" fill="#4E5053"/>
<path fill-rule="evenodd" clip-rule="evenodd" d="M41.5569 79.922H36.2791V85.1133H41.5569V79.922Z" fill="#4E5053"/>
<path fill-rule="evenodd" clip-rule="evenodd" d="M36.2779 85.1121H31V90.3034H36.2779V85.1121Z" fill="#4E5053"/>
<path fill-rule="evenodd" clip-rule="evenodd" d="M41.5569 85.1121H36.2791V90.3034H41.5569V85.1121Z" fill="#4E5053"/>
<path fill-rule="evenodd" clip-rule="evenodd" d="M36.2779 90.3034H31V95.4948H36.2779V90.3034Z" fill="#4E5053"/>
<path fill-rule="evenodd" clip-rule="evenodd" d="M36.2779 105.875H31V111.068H36.2779V105.875Z" fill="#4E5053"/>
<path fill-rule="evenodd" clip-rule="evenodd" d="M41.5569 105.875H36.2791V111.068H41.5569V105.875Z" fill="#4E5053"/>
<path fill-rule="evenodd" clip-rule="evenodd" d="M36.2779 111.068H31V116.26H36.2779V111.068Z" fill="#4E5053"/>
<path fill-rule="evenodd" clip-rule="evenodd" d="M41.5569 111.068H36.2791V116.26H41.5569V111.068Z" fill="#4E5053"/>
<path fill-rule="evenodd" clip-rule="evenodd" d="M57.3955 111.068H52.1178V116.26H57.3955V111.068Z" fill="#4E5053"/>
<path fill-rule="evenodd" clip-rule="evenodd" d="M62.6747 111.068H57.3969V116.26H62.6747V111.068Z" fill="#4E5053"/>
<path fill-rule="evenodd" clip-rule="evenodd" d="M67.9538 111.068H62.6761V116.26H67.9538V111.068Z" fill="#4E5053"/>
<path fill-rule="evenodd" clip-rule="evenodd" d="M73.2336 111.068H67.9557V116.26H73.2336V111.068Z" fill="#4E5053"/>
<path fill-rule="evenodd" clip-rule="evenodd" d="M52.1158 116.26H46.838V121.454H52.1158V116.26Z" fill="#4E5053"/>
<path fill-rule="evenodd" clip-rule="evenodd" d="M36.2779 116.26H31V121.454H36.2779V116.26Z" fill="#4E5053"/>
<path fill-rule="evenodd" clip-rule="evenodd" d="M57.3955 116.26H52.1178V121.454H57.3955V116.26Z" fill="#4E5053"/>
<path fill-rule="evenodd" clip-rule="evenodd" d="M73.2336 116.26H67.9557V121.454H73.2336V116.26Z" fill="#4E5053"/>
<path fill-rule="evenodd" clip-rule="evenodd" d="M115.469 111.068H110.19V116.26H115.469V111.068Z" fill="#4E5053"/>
<path fill-rule="evenodd" clip-rule="evenodd" d="M126.026 69.5393H120.749V74.7307H126.026V69.5393Z" fill="#4E5053"/>
<path fill-rule="evenodd" clip-rule="evenodd" d="M131.306 69.5393H126.029V74.7307H131.306V69.5393Z" fill="#4E5053"/>
<path fill-rule="evenodd" clip-rule="evenodd" d="M136.584 69.5393H131.308V74.7307H136.584V69.5393Z" fill="#4E5053"/>
<path fill-rule="evenodd" clip-rule="evenodd" d="M141.865 69.5393H136.588V74.7307H141.865V69.5393Z" fill="#4E5053"/>
<path fill-rule="evenodd" clip-rule="evenodd" d="M147.145 69.5393H141.866V74.7307H147.145V69.5393Z" fill="#4E5053"/>
<path fill-rule="evenodd" clip-rule="evenodd" d="M152.423 69.5393H147.146V74.7307H152.423V69.5393Z" fill="#4E5053"/>
<path fill-rule="evenodd" clip-rule="evenodd" d="M126.026 74.7294H120.749V79.9195H126.026V74.7294Z" fill="#4E5053"/>
<path fill-rule="evenodd" clip-rule="evenodd" d="M131.306 74.7294H126.029V79.9195H131.306V74.7294Z" fill="#4E5053"/>
<path fill-rule="evenodd" clip-rule="evenodd" d="M136.584 74.7294H131.308V79.9195H136.584V74.7294Z" fill="#4E5053"/>
<path fill-rule="evenodd" clip-rule="evenodd" d="M126.026 79.922H120.749V85.1133H126.026V79.922Z" fill="#4E5053"/>
<path fill-rule="evenodd" clip-rule="evenodd" d="M136.584 79.922H131.308V85.1133H136.584V79.922Z" fill="#4E5053"/>
<path fill-rule="evenodd" clip-rule="evenodd" d="M131.306 85.1121H126.029V90.3034H131.306V85.1121Z" fill="#4E5053"/>
<path fill-rule="evenodd" clip-rule="evenodd" d="M136.584 85.1121H131.308V90.3034H136.584V85.1121Z" fill="#4E5053"/>
<path fill-rule="evenodd" clip-rule="evenodd" d="M147.145 85.1121H141.866V90.3034H147.145V85.1121Z" fill="#4E5053"/>
<path fill-rule="evenodd" clip-rule="evenodd" d="M152.423 85.1121H147.146V90.3034H152.423V85.1121Z" fill="#4E5053"/>
<path fill-rule="evenodd" clip-rule="evenodd" d="M131.306 90.3034H126.029V95.4948H131.306V90.3034Z" fill="#4E5053"/>
<path fill-rule="evenodd" clip-rule="evenodd" d="M136.584 90.3034H131.308V95.4948H136.584V90.3034Z" fill="#4E5053"/>
<path fill-rule="evenodd" clip-rule="evenodd" d="M152.423 90.3034H147.146V95.4948H152.423V90.3034Z" fill="#4E5053"/>
<path fill-rule="evenodd" clip-rule="evenodd" d="M131.306 95.496H126.029V100.687H131.306V95.496Z" fill="#4E5053"/>
<path fill-rule="evenodd" clip-rule="evenodd" d="M152.423 95.496H147.146V100.687H152.423V95.496Z" fill="#4E5053"/>
<path fill-rule="evenodd" clip-rule="evenodd" d="M131.306 100.686H126.029V105.876H131.306V100.686Z" fill="#4E5053"/>
<path fill-rule="evenodd" clip-rule="evenodd" d="M136.584 100.686H131.308V105.876H136.584V100.686Z" fill="#4E5053"/>
<path fill-rule="evenodd" clip-rule="evenodd" d="M141.865 100.686H136.588V105.876H141.865V100.686Z" fill="#4E5053"/>
<path fill-rule="evenodd" clip-rule="evenodd" d="M147.145 100.686H141.866V105.876H147.145V100.686Z" fill="#4E5053"/>
<path fill-rule="evenodd" clip-rule="evenodd" d="M152.423 100.686H147.146V105.876H152.423V100.686Z" fill="#4E5053"/>
<path fill-rule="evenodd" clip-rule="evenodd" d="M141.865 105.875H136.588V111.068H141.865V105.875Z" fill="#4E5053"/>
<path fill-rule="evenodd" clip-rule="evenodd" d="M147.145 105.875H141.866V111.068H147.145V105.875Z" fill="#4E5053"/>
<path fill-rule="evenodd" clip-rule="evenodd" d="M126.026 111.068H120.749V116.26H126.026V111.068Z" fill="#4E5053"/>
<path fill-rule="evenodd" clip-rule="evenodd" d="M131.306 111.068H126.029V116.26H131.306V111.068Z" fill="#4E5053"/>
<path fill-rule="evenodd" clip-rule="evenodd" d="M157.703 69.5393H152.425V74.7307H157.703V69.5393Z" fill="#4E5053"/>
<path fill-rule="evenodd" clip-rule="evenodd" d="M162.983 69.5393H157.705V74.7307H162.983V69.5393Z" fill="#4E5053"/>
<path fill-rule="evenodd" clip-rule="evenodd" d="M136.584 64.3393H131.308V69.5282H136.584V64.3393Z" fill="#4E5053"/>
<path fill-rule="evenodd" clip-rule="evenodd" d="M152.423 64.3393H147.146V69.5282H152.423V64.3393Z" fill="#4E5053"/>
<path fill-rule="evenodd" clip-rule="evenodd" d="M162.983 64.3393H157.705V69.5282H162.983V64.3393Z" fill="#4E5053"/>
<path fill-rule="evenodd" clip-rule="evenodd" d="M157.703 85.1121H152.425V90.3034H157.703V85.1121Z" fill="#4E5053"/>
<path fill-rule="evenodd" clip-rule="evenodd" d="M162.983 85.1121H157.705V90.3034H162.983V85.1121Z" fill="#4E5053"/>
<path fill-rule="evenodd" clip-rule="evenodd" d="M162.983 95.496H157.705V100.687H162.983V95.496Z" fill="#4E5053"/>
<path fill-rule="evenodd" clip-rule="evenodd" d="M162.983 100.686H157.705V105.876H162.983V100.686Z" fill="#4E5053"/>
<path fill-rule="evenodd" clip-rule="evenodd" d="M162.983 105.875H157.705V111.068H162.983V105.875Z" fill="#4E5053"/>
<path fill-rule="evenodd" clip-rule="evenodd" d="M157.703 111.068H152.425V116.26H157.703V111.068Z" fill="#4E5053"/>
<path fill-rule="evenodd" clip-rule="evenodd" d="M162.983 111.068H157.705V116.26H162.983V111.068Z" fill="#4E5053"/>
<path fill-rule="evenodd" clip-rule="evenodd" d="M94.3501 116.261H89.0728V121.453H94.3501V116.261Z" fill="#4E5053"/>
<path fill-rule="evenodd" clip-rule="evenodd" d="M99.6301 116.261H94.3526V121.453H99.6301V116.261Z" fill="#4E5053"/>
<path fill-rule="evenodd" clip-rule="evenodd" d="M104.909 116.261H99.6313V121.453H104.909V116.261Z" fill="#4E5053"/>
<path fill-rule="evenodd" clip-rule="evenodd" d="M110.188 116.261H104.911V121.453H110.188V116.261Z" fill="#4E5053"/>
<path fill-rule="evenodd" clip-rule="evenodd" d="M115.469 116.261H110.19V121.453H115.469V116.261Z" fill="#4E5053"/>
<path fill-rule="evenodd" clip-rule="evenodd" d="M78.5127 121.453H73.2348V126.643H78.5127V121.453Z" fill="#4E5053"/>
<path fill-rule="evenodd" clip-rule="evenodd" d="M83.7918 121.453H78.5139V126.643H83.7918V121.453Z" fill="#4E5053"/>
<path fill-rule="evenodd" clip-rule="evenodd" d="M110.188 121.453H104.911V126.643H110.188V121.453Z" fill="#4E5053"/>
<path fill-rule="evenodd" clip-rule="evenodd" d="M115.469 121.453H110.19V126.643H115.469V121.453Z" fill="#4E5053"/>
<path fill-rule="evenodd" clip-rule="evenodd" d="M78.5127 126.643H73.2348V131.834H78.5127V126.643Z" fill="#4E5053"/>
<path fill-rule="evenodd" clip-rule="evenodd" d="M83.7918 126.643H78.5139V131.834H83.7918V126.643Z" fill="#4E5053"/>
<path fill-rule="evenodd" clip-rule="evenodd" d="M99.6301 126.643H94.3526V131.834H99.6301V126.643Z" fill="#4E5053"/>
<path fill-rule="evenodd" clip-rule="evenodd" d="M104.909 126.643H99.6313V131.834H104.909V126.643Z" fill="#4E5053"/>
<path fill-rule="evenodd" clip-rule="evenodd" d="M115.469 126.643H110.19V131.834H115.469V126.643Z" fill="#4E5053"/>
<path fill-rule="evenodd" clip-rule="evenodd" d="M78.5127 131.834H73.2348V137.025H78.5127V131.834Z" fill="#4E5053"/>
<path fill-rule="evenodd" clip-rule="evenodd" d="M83.7918 131.834H78.5139V137.025H83.7918V131.834Z" fill="#4E5053"/>
<path fill-rule="evenodd" clip-rule="evenodd" d="M94.3501 131.834H89.0728V137.025H94.3501V131.834Z" fill="#4E5053"/>
<path fill-rule="evenodd" clip-rule="evenodd" d="M99.6301 131.834H94.3526V137.025H99.6301V131.834Z" fill="#4E5053"/>
<path fill-rule="evenodd" clip-rule="evenodd" d="M104.909 131.834H99.6313V137.025H104.909V131.834Z" fill="#4E5053"/>
<path fill-rule="evenodd" clip-rule="evenodd" d="M110.188 131.834H104.911V137.025H110.188V131.834Z" fill="#4E5053"/>
<path fill-rule="evenodd" clip-rule="evenodd" d="M78.5127 137.027H73.2348V142.216H78.5127V137.027Z" fill="#4E5053"/>
<path fill-rule="evenodd" clip-rule="evenodd" d="M83.7918 137.027H78.5139V142.216H83.7918V137.027Z" fill="#4E5053"/>
<path fill-rule="evenodd" clip-rule="evenodd" d="M94.3501 137.027H89.0728V142.216H94.3501V137.027Z" fill="#4E5053"/>
<path fill-rule="evenodd" clip-rule="evenodd" d="M99.6301 137.027H94.3526V142.216H99.6301V137.027Z" fill="#4E5053"/>
<path fill-rule="evenodd" clip-rule="evenodd" d="M110.19 137.027H104.911V142.216H110.19V137.027Z" fill="#4E5053"/>
<path fill-rule="evenodd" clip-rule="evenodd" d="M120.749 131.834H115.47V137.025H120.749V131.834Z" fill="#4E5053"/>
<path fill-rule="evenodd" clip-rule="evenodd" d="M78.5127 142.216H73.2348V147.409H78.5127V142.216Z" fill="#4E5053"/>
<path fill-rule="evenodd" clip-rule="evenodd" d="M83.7918 142.216H78.5139V147.409H83.7918V142.216Z" fill="#4E5053"/>
<path fill-rule="evenodd" clip-rule="evenodd" d="M99.6301 142.216H94.3526V147.409H99.6301V142.216Z" fill="#4E5053"/>
<path fill-rule="evenodd" clip-rule="evenodd" d="M110.19 142.216H104.911V147.409H110.19V142.216Z" fill="#4E5053"/>
<path fill-rule="evenodd" clip-rule="evenodd" d="M120.749 142.216H115.47V147.409H120.749V142.216Z" fill="#4E5053"/>
<path fill-rule="evenodd" clip-rule="evenodd" d="M73.2336 147.408H67.9557V152.598H73.2336V147.408Z" fill="#4E5053"/>
<path fill-rule="evenodd" clip-rule="evenodd" d="M83.7918 147.408H78.5139V152.598H83.7918V147.408Z" fill="#4E5053"/>
<path fill-rule="evenodd" clip-rule="evenodd" d="M89.0716 147.408H83.7937V152.598H89.0716V147.408Z" fill="#4E5053"/>
<path fill-rule="evenodd" clip-rule="evenodd" d="M99.6301 147.408H94.3526V152.598H99.6301V147.408Z" fill="#4E5053"/>
<path fill-rule="evenodd" clip-rule="evenodd" d="M115.469 147.408H110.19V152.598H115.469V147.408Z" fill="#4E5053"/>
<path fill-rule="evenodd" clip-rule="evenodd" d="M120.749 147.408H115.47V152.598H120.749V147.408Z" fill="#4E5053"/>
<path fill-rule="evenodd" clip-rule="evenodd" d="M141.865 111.07H136.588V116.259H141.865V111.07Z" fill="#4E5053"/>
<path fill-rule="evenodd" clip-rule="evenodd" d="M147.145 116.261H141.866V121.453H147.145V116.261Z" fill="#4E5053"/>
<path fill-rule="evenodd" clip-rule="evenodd" d="M152.423 116.261H147.146V121.453H152.423V116.261Z" fill="#4E5053"/>
<path fill-rule="evenodd" clip-rule="evenodd" d="M126.026 121.453H120.749V126.643H126.026V121.453Z" fill="#4E5053"/>
<path fill-rule="evenodd" clip-rule="evenodd" d="M131.306 121.453H126.029V126.643H131.306V121.453Z" fill="#4E5053"/>
<path fill-rule="evenodd" clip-rule="evenodd" d="M136.584 121.453H131.308V126.643H136.584V121.453Z" fill="#4E5053"/>
<path fill-rule="evenodd" clip-rule="evenodd" d="M141.865 126.643H136.588V131.834H141.865V126.643Z" fill="#4E5053"/>
<path fill-rule="evenodd" clip-rule="evenodd" d="M152.423 121.453H147.146V126.643H152.423V121.453Z" fill="#4E5053"/>
<path fill-rule="evenodd" clip-rule="evenodd" d="M126.026 126.643H120.749V131.834H126.026V126.643Z" fill="#4E5053"/>
<path fill-rule="evenodd" clip-rule="evenodd" d="M136.584 126.643H131.308V131.834H136.584V126.643Z" fill="#4E5053"/>
<path fill-rule="evenodd" clip-rule="evenodd" d="M126.026 131.834H120.749V137.025H126.026V131.834Z" fill="#4E5053"/>
<path fill-rule="evenodd" clip-rule="evenodd" d="M131.306 131.834H126.029V137.025H131.306V131.834Z" fill="#4E5053"/>
<path fill-rule="evenodd" clip-rule="evenodd" d="M136.584 131.834H131.308V137.025H136.584V131.834Z" fill="#4E5053"/>
<path fill-rule="evenodd" clip-rule="evenodd" d="M141.865 131.834H136.588V137.025H141.865V131.834Z" fill="#4E5053"/>
<path fill-rule="evenodd" clip-rule="evenodd" d="M152.423 131.834H147.146V137.025H152.423V131.834Z" fill="#4E5053"/>
<path fill-rule="evenodd" clip-rule="evenodd" d="M131.306 137.027H126.029V142.216H131.306V137.027Z" fill="#4E5053"/>
<path fill-rule="evenodd" clip-rule="evenodd" d="M141.865 137.027H136.588V142.216H141.865V137.027Z" fill="#4E5053"/>
<path fill-rule="evenodd" clip-rule="evenodd" d="M147.145 137.027H141.866V142.216H147.145V137.027Z" fill="#4E5053"/>
<path fill-rule="evenodd" clip-rule="evenodd" d="M131.306 142.216H126.029V147.409H131.306V142.216Z" fill="#4E5053"/>
<path fill-rule="evenodd" clip-rule="evenodd" d="M152.423 142.216H147.146V147.409H152.423V142.216Z" fill="#4E5053"/>
<path fill-rule="evenodd" clip-rule="evenodd" d="M126.026 147.408H120.749V152.598H126.026V147.408Z" fill="#4E5053"/>
<path fill-rule="evenodd" clip-rule="evenodd" d="M131.306 147.408H126.029V152.598H131.306V147.408Z" fill="#4E5053"/>
<path fill-rule="evenodd" clip-rule="evenodd" d="M152.423 147.408H147.146V152.598H152.423V147.408Z" fill="#4E5053"/>
<path fill-rule="evenodd" clip-rule="evenodd" d="M157.703 116.261H152.425V121.453H157.703V116.261Z" fill="#4E5053"/>
<path fill-rule="evenodd" clip-rule="evenodd" d="M157.703 121.453H152.425V126.643H157.703V121.453Z" fill="#4E5053"/>
<path fill-rule="evenodd" clip-rule="evenodd" d="M157.703 126.643H152.425V131.834H157.703V126.643Z" fill="#4E5053"/>
<path fill-rule="evenodd" clip-rule="evenodd" d="M157.703 131.834H152.425V137.025H157.703V131.834Z" fill="#4E5053"/>
<path fill-rule="evenodd" clip-rule="evenodd" d="M157.703 137.027H152.425V142.216H157.703V137.027Z" fill="#4E5053"/>
<path fill-rule="evenodd" clip-rule="evenodd" d="M157.703 142.216H152.425V147.409H157.703V142.216Z" fill="#4E5053"/>
<path fill-rule="evenodd" clip-rule="evenodd" d="M157.703 147.408H152.425V152.598H157.703V147.408Z" fill="#4E5053"/>
<path fill-rule="evenodd" clip-rule="evenodd" d="M73.2336 126.643H67.9557V131.834H73.2336V126.643Z" fill="#4E5053"/>
<path fill-rule="evenodd" clip-rule="evenodd" d="M73.2336 137.027H67.9557V142.216H73.2336V137.027Z" fill="#4E5053"/>
<path fill-rule="evenodd" clip-rule="evenodd" d="M73.2336 142.216H67.9557V147.409H73.2336V142.216Z" fill="#4E5053"/>
<path fill-rule="evenodd" clip-rule="evenodd" d="M73.2336 152.598H67.9557V157.791H73.2336V152.598Z" fill="#4E5053"/>
<path fill-rule="evenodd" clip-rule="evenodd" d="M89.0716 152.598H83.7937V157.791H89.0716V152.598Z" fill="#4E5053"/>
<path fill-rule="evenodd" clip-rule="evenodd" d="M99.6301 152.598H94.3526V157.791H99.6301V152.598Z" fill="#4E5053"/>
<path fill-rule="evenodd" clip-rule="evenodd" d="M110.19 152.598H104.911V157.791H110.19V152.598Z" fill="#4E5053"/>
<path fill-rule="evenodd" clip-rule="evenodd" d="M120.746 152.598H115.47V157.791H120.746V152.598Z" fill="#4E5053"/>
<path fill-rule="evenodd" clip-rule="evenodd" d="M157.703 152.598H152.425V157.791H157.703V152.598Z" fill="#4E5053"/>
<path fill-rule="evenodd" clip-rule="evenodd" d="M162.983 152.598H157.705V157.791H162.983V152.598Z" fill="#4E5053"/>
</svg>
